<?xml version="1.0" encoding="utf-8"?>
<!-- Generator: Adobe Illustrator 25.2.3, SVG Export Plug-In . SVG Version: 6.00 Build 0)  -->
<svg version="1.1" id="Layer_4" xmlns="http://www.w3.org/2000/svg" xmlns:xlink="http://www.w3.org/1999/xlink" x="0px" y="0px"
	 viewBox="0 0 450 450" style="enable-background:new 0 0 450 450;" xml:space="preserve">
<style type="text/css">
	.st0{fill:#126B71;}
	.st1{fill:#FFEAAE;}
	.st2{fill:#7A4D3A;}
	.st3{fill:#6DB3BF;}
	.st4{fill:#FCBB61;}
	.st5{fill:#9E5423;}
	.st6{fill:#9D4C14;}
	.st7{fill:#6D4B2D;}
	.st8{fill:#FFFFFF;}
	.st9{fill:#FEEDD1;}
	.st10{fill:#FBC928;}
	.st11{fill:#14817C;}
	.st12{fill:#257880;}
	.st13{font-family:'Phosphate-Solid';}
	.st14{font-size:43.4095px;}
</style>
<path class="st0" d="M94.1-73.8h256.8c10.7,0,19.3,11.2,19.3,25v429.2c0,13.8-8.6,25-19.3,25H94.1c-10.7,0-19.3-11.2-19.3-25V-48.8
	C74.9-62.6,83.5-73.8,94.1-73.8z"/>
<path class="st1" d="M310,433.2l-176.9-7.8c-18.2-0.8-34.7-16.8-36.8-35.8L63.9,100.1c-2.1-18.9,10.8-36.6,28.8-39.4L352,20
	c18-2.8,31.1,10.3,29.2,29.2l-34.9,351.1C344.5,419.3,328.2,434,310,433.2z"/>
<path class="st2" d="M310,433.2c0,0-20.2-0.8-55.6-2.3c-17.7-0.7-39.2-1.7-63.9-2.5c-12.3-0.5-25.4-0.9-39.3-1.4
	c-3.5-0.1-7-0.3-10.5-0.4c-1.8-0.1-3.6-0.1-5.4-0.2c-0.9,0-1.8,0-2.7-0.1s-1.8-0.1-2.7-0.2c-3.7-0.5-7.4-1.6-10.9-3.2
	s-6.7-3.8-9.7-6.3c-6-5-10.6-11.9-13.1-19.7c-0.3-1-0.5-2-0.8-3s-0.4-2-0.6-3c-0.3-2-0.5-4-0.8-6c-0.5-4-1-8-1.5-12.1
	c-2-16.2-4.2-33-6.3-50.3c-4.3-34.5-8.9-70.9-13.6-108.6c-2.3-18.8-4.7-38-7.1-57.4c-1.2-9.7-2.3-19.4-3.5-29.3
	c-0.6-4.9-1.2-9.8-1.8-14.7c-0.3-2.5-0.6-4.9-0.9-7.4l-0.4-3.7v-0.5c0,0.1-0.1-0.6-0.1-0.7l-0.1-0.9l-0.1-1.9c-0.1-0.6,0-1.4,0-2.1
	l0.1-2.3c0.1-1.4,0.3-2.8,0.5-4.2c0.3-1.4,0.6-2.8,0.9-4.2c0.5-1.3,0.8-2.7,1.4-4.1c2.1-5.3,5.2-10.2,9.3-14.3
	c0.2-0.3,0.5-0.5,0.8-0.8l0.8-0.7l1.6-1.4c1.1-0.9,2.3-1.7,3.5-2.5c1.3-0.7,2.5-1.5,3.8-2.1l2-0.9c0.3-0.1,0.7-0.3,1-0.4l1-0.3
	c1.4-0.5,2.8-0.9,4.2-1.2l2.2-0.5l1.9-0.3l7.5-1.2c19.9-3.2,39.9-6.4,59.9-9.6c20-3.1,40-6.2,59.9-9.3c10-1.5,19.9-3.1,29.8-4.6
	s19.8-3,29.7-4.4c19.7-2.9,39.3-5.9,58.6-8.7c2.4-0.4,4.8-0.7,7.2-1l3.6-0.5l0.9-0.1l0.5-0.1c0.6-0.1,0.4-0.1,0.7-0.1l1.8-0.2
	c1.1-0.2,2.8-0.1,4.2-0.1c0.8,0,1.5,0.1,2.1,0.2l2.1,0.3c0.7,0.1,1.4,0.3,2.1,0.5c0.7,0.2,1.4,0.3,2,0.6c1.3,0.5,2.7,1,3.9,1.7
	c2.6,1.2,4.8,3.1,6.9,5c1.9,2.1,3.7,4.3,4.9,6.9c2.5,5,3.6,10.5,3.4,15.7c-0.1,1.3-0.1,2.7-0.3,3.9l-0.4,3.5c-0.3,2.3-0.5,4.7-0.8,7
	c-0.5,4.7-1.1,9.3-1.6,14c-1,9.3-2.1,18.4-3.1,27.5c-2.1,18.2-4.1,35.9-6,53.2s-3.9,34.1-5.7,50.4c-1.8,16.3-3.5,32-5.2,47.1
	c-3.4,30.2-6.3,57.9-8.9,82.4c-2.7,24.5-4.8,45.9-6.6,63.5c-0.1,0.5-0.1,1.1-0.2,1.6s-0.2,1.1-0.2,1.6c-0.2,1.1-0.3,2.1-0.6,3.1
	c-0.5,2.1-1.1,4-1.9,5.8c-1.5,3.7-3.6,6.8-5.8,9.5c-4.4,5.4-9.5,8.5-13.9,10.4c-4.4,1.8-8.1,2.3-10.5,2.5c-1.2,0.1-2.1,0-2.8,0
	C310.3,433.2,310,433.2,310,433.2z M310,433.2c0,0,0.3,0,0.9,0s1.5,0,2.8-0.1c2.4-0.2,6.1-0.7,10.5-2.6c4.3-1.9,9.5-5,13.8-10.4
	c2.1-2.7,4.2-5.8,5.7-9.4c0.7-1.8,1.4-3.8,1.8-5.8c0.3-1,0.4-2.1,0.6-3.1c0.1-0.5,0.1-1.1,0.2-1.6c0-0.5,0.1-1.1,0.2-1.6
	c1.7-17.6,3.8-39,6-63.6s4.9-52.3,7.5-82.5c1.3-15.1,2.7-30.9,4.1-47.2s2.8-33.2,4.3-50.5s3-35.1,4.6-53.3
	c0.8-9.1,1.6-18.3,2.4-27.6c0.4-4.6,0.8-9.3,1.2-14c0.2-2.3,0.4-4.7,0.6-7l0.3-3.5c0.1-1.1,0.1-2.1,0.1-3.2c0-4.2-0.9-8.3-2.8-11.9
	c-0.9-1.8-2.2-3.3-3.5-4.8c-1.5-1.3-3-2.5-4.8-3.3c-0.9-0.5-1.8-0.8-2.7-1.1c-0.5-0.2-1-0.2-1.4-0.4c-0.5-0.1-1-0.2-1.5-0.3
	l-1.5-0.1c-0.5,0-1-0.1-1.5-0.1c-1,0-1.7-0.1-3.1,0.1l-1.8,0.2c0,0-0.5,0.1-0.2,0l-0.5,0.1l-0.9,0.1l-3.6,0.6
	c-2.4,0.4-4.8,0.8-7.2,1.2c-19.3,3.2-38.8,6.4-58.4,9.6c-9.8,1.6-19.7,3.2-29.6,4.9c-9.9,1.6-19.9,3.2-29.8,4.8
	c-19.9,3.2-39.9,6.4-59.9,9.5s-40,6.2-59.9,9.3l-7.5,1.2l-2,0.2L92,66.3c-1,0.2-2,0.5-3,0.8l-0.8,0.2c-0.2,0.1-0.5,0.2-0.7,0.3
	L86,68.3c-1,0.4-1.8,1-2.8,1.5c-0.9,0.6-1.8,1.2-2.6,1.8l-1.2,1c-0.4,0.3-0.8,0.7-1.2,1.1c-3.1,3-5.5,6.6-7.1,10.6
	c-0.4,1-0.7,2-1.1,3c-0.3,1-0.5,2.1-0.8,3.1c-0.1,1.1-0.3,2.2-0.4,3.2l-0.1,1.5c0,0.5-0.1,0.9,0,1.6c4,39.6,7.9,78.5,11.7,116.2
	c3.7,37.8,7.3,74.3,10.7,108.9c1.7,17.3,3.3,34.2,4.9,50.5c0.4,4.1,0.8,8.1,1.2,12.1c0.2,2,0.4,4,0.6,5.9c0.2,0.9,0.2,1.9,0.5,2.8
	c0.2,0.9,0.4,1.9,0.7,2.8c2.2,7.3,6.4,13.9,11.9,18.8c2.8,2.5,5.8,4.6,9,6.2c3.3,1.6,6.7,2.7,10.1,3.2c0.9,0.1,1.8,0.2,2.7,0.3
	c0.8,0.1,1.8,0.1,2.6,0.2c1.8,0.1,3.6,0.2,5.4,0.3c3.5,0.2,7,0.4,10.5,0.5c13.8,0.7,26.9,1.4,39.2,2c24.6,1.3,46.1,2.3,63.8,3.1
	C289.8,432.3,310,433.2,310,433.2z"/>
<path class="st3" d="M342.2,207.7c0,64.7-52.4,117.1-117.1,117.1S108,272.4,108,207.7S160.4,90.6,225.1,90.6
	S342.2,143.1,342.2,207.7z"/>
<g>
	<path class="st4" d="M119.1,203c7.9-9.9-3.6-29.2,43.1-30c46.6-0.8,93.2-10.7,114.1-24.5s35.5,3.6,43,8.3
		C266.4,195.7,119.1,203,119.1,203z"/>
	<path class="st5" d="M115.6,204.9l2.3-2.9c1.8-2.2,2.5-5.2,3.2-8.4c2.3-9.6,5.2-21.7,41.1-22.3c46.3-0.8,92.9-10.7,113.3-24.2
		c5.5-3.7,11.2-5.5,16.7-5.5c10.4,0,18.3,6.2,24,10.7c1.6,1.2,3,2.3,4.1,3l2,1.3l-2,1.4c-52.8,38.8-195.1,46.2-201.1,46.5
		L115.6,204.9z M292.1,144.9c-4.9,0-9.9,1.7-14.9,5c-21.2,14-67.4,23.9-115,24.8c-33.4,0.6-35.7,10.3-37.9,19.7
		c-0.6,2.3-1.1,4.6-2.1,6.8c21.3-1.3,145.2-10.4,194.3-44.4c-0.8-0.6-1.5-1.2-2.4-1.9C308.7,150.7,301.3,144.9,292.1,144.9z"/>
	<g>
		<g>
			<path class="st6" d="M124.3,238.6c72.2,0,148.6-8.9,209.9-50.4c1-0.7,2.1-1.4,3.1-2.2c10.5-7.4,15.5-20.6,8.5-32.4
				c-6.1-10.4-21.9-16-32.4-8.5c-13.3,9.4-27.6,17.1-42.6,23.5c1.9-0.8,3.8-1.6,5.7-2.4c-26.2,11-54,17.7-82.1,21.6
				c2.1-0.3,4.2-0.6,6.3-0.9c-25.3,3.4-50.8,4.3-76.4,4.3c-12.9,0-23.7,10.8-23.7,23.7C100.6,227.8,111.4,238.6,124.3,238.6
				L124.3,238.6z"/>
		</g>
	</g>
	<path class="st4" d="M309.4,176.4c-15.2,5.2-29.5,23.5-64.2,32.1c-25.3,6.4-47.2,3.9-68,6.1c-37.1,3.8-32.5,21.7-39.4,23.6
		c0,0-8.8,0.4-10.2,0.4c2.3,3.1,7,8.2,14.2,13.6c34.2,25.5,87,13.8,115.4,7.2c24.1-5.6,62-15.8,80.6-42.1
		C359.7,186.2,328,170.1,309.4,176.4z"/>
	<g>
		<g>
			<path class="st7" d="M326.7,146.4c-1.9-4.7-9.5-2.6-7.6,2.1c1,2.6,3.8,8.4,1.6,10.8c-1.8,2-6.8,0.8-9,0.5
				c-4.2-0.7-8.4-1.6-12.6-2c-7.2-0.8-14,1-19,6.4c-2.9,3.1-4.7,6.9-6.4,10.7c-1.5,3.4-3,7.5-6.4,9.4c-3.5,2-9.1-1.4-12.1-3
				c-4.3-2.3-8.5-4.1-13.4-4.5c-5.5-0.5-10.6,2.2-13.9,6.4c-3.1,4-5.4,10.6-8.2,14.7c-2.7,4.1-6.4,3.6-10.7,1.7
				c-3.3-1.4-14.1-12.2-17.8-13.7c-6.8-2.6-12.9-0.5-18.4,3.8c-3.3,2.6-11.3,15.8-11.5,18.6c8-2.4,13.1-11.3,20.2-15.1
				c3.9-2.1,8.9,0.6,12.1,2.8c4.1,2.9,8,6.2,12.6,8.5c5.2,2.5,9.5,3.5,14.6,0.1c4.2-2.8,7.5-6.9,9.8-11.2c2-3.8,4.2-7.9,8.8-8.8
				c3.6-0.7,7.6,1.4,10.7,3c4.3,2.2,8.7,4.6,13.6,4.9c9,0.5,13.3-6.4,16.6-13.7c2.8-6.2,6.1-12.8,13.6-13.3c7.4-0.6,14.7,2.4,22,2.7
				c5.6,0.2,11.3-2.3,12.7-8.1C330.1,155.4,328.4,150.5,326.7,146.4z"/>
		</g>
	</g>
	<path class="st7" d="M157.6,209.5c-6,0-9.5-3.8-12.9-7.5l-0.4-0.4c-0.4-0.4-0.7-0.8-1.1-1.2c-2.6-2.9-5.9-6.6-9.4-7
		c-3.6-0.4-5.4-3.7-5.2-6.4c0.2-2.8,2.2-4.8,4.9-4.8c0.2,0,0.5,0,0.8,0.1c4.8,0.6,9.2,2.8,13.3,6.7c1.8,1.7,3.6,3.6,5.8,6
		c0.2,0.3,0.5,0.6,0.8,0.9c0.9,1.1,2.2,2.6,3.2,2.6c0.1,0,0.2,0,0.3-0.1c4.3-1.3,7.3-4.9,10.4-8.8c2.8-3.4,5.7-7,9.8-9
		c2.3-1.1,4.7-1.7,7.2-1.7c7.5,0,13.9,5.2,18,9.6l0.6,0.6c2.4,2.6,7.3,7.9,11,7.9c0.5,0,1-0.1,1.5-0.4c2.5-1.3,3.9-4.8,5.2-7.9
		c0.3-0.7,0.6-1.4,0.9-2c2.3-5,4.9-10.1,9.7-12.9c2.6-1.6,5.5-2.3,8.6-2.3c4.2,0,8.6,1.4,12.5,4.1c0.5,0.4,1.1,0.8,1.7,1.1
		c3.3,2.3,7.4,5.1,10.5,5.1c1.3,0,3.3-0.4,5-4c0.9-2,1.6-4.1,2.4-6.3c2-5.7,4.1-11.7,9.7-15.4c2.9-1.9,6.2-2.9,10.2-2.9
		c2.8,0,5.8,0.4,9.6,1.4c1,0.3,2,0.5,3.1,0.8c2.6,0.7,5.2,1.4,7.9,1.9l0.5,0.1c1.1,0.2,2.7,0.5,4.2,0.5c1.7,0,2.2-0.4,2.3-0.6
		c0.7-0.8,0-3.4-1.9-7.9c-0.2-0.5-0.4-0.9-0.5-1.2c-0.7-1.6-0.5-3.3,0.4-4.6c1-1.5,2.8-2.4,4.8-2.4c2.5,0,4.6,1.4,5.5,3.7
		c1.8,4.5,4.5,11.3,1.8,17.4c-2,4.5-6.3,6.7-12.7,6.7c-2.8,0-6-0.4-9.8-1.3c-1.3-0.3-2.8-0.8-4.3-1.3c-3.3-1.1-7.1-2.2-10.3-2.2
		c-1.8,0-3.2,0.4-4.3,1.1c-3.6,2.4-5,6.8-6.5,11.5c-1.3,4-2.6,8.2-5.5,11.4c-3,3.3-7,5-11.5,5c-4.3,0-8.9-1.6-12.9-4.4
		c-0.5-0.4-1.1-0.8-1.7-1.2c-2.9-2.1-6.9-5.1-10.2-5.1c-1.2,0-2.2,0.4-3.1,1.2c-2.8,2.5-4.3,6.1-6,9.8c-2.4,5.5-4.9,11.1-11.2,13.6
		c-1.5,0.6-3.2,0.9-5,0.9c-4.8,0-10.1-2.2-14.4-6c-1.2-1.1-2.4-2.4-3.8-3.8c-3.5-3.8-7.6-8-11.6-8c-1.4,0-2.7,0.5-4.1,1.6
		c-2.3,1.8-4.3,4.2-6.4,6.8c-4.4,5.3-8.9,10.8-16.5,11.1C158,209.5,157.8,209.5,157.6,209.5z M133.5,185.4c-1.3,0-1.5,1.1-1.6,1.7
		c-0.1,1.1,0.5,2.8,2.3,3c4.8,0.6,8.5,4.7,11.5,8.1c0.4,0.4,0.8,0.8,1.1,1.2l0.4,0.4c3.4,3.7,6.1,6.7,10.9,6.5
		c6.1-0.3,10-5,14.1-9.9c2.1-2.6,4.4-5.3,6.9-7.3c1.9-1.5,4-2.3,6.1-2.3c5.4,0,10,4.8,14,9.1c1.3,1.4,2.5,2.6,3.6,3.6
		c2.8,2.5,7.5,5.1,12.2,5.1c1.4,0,2.6-0.2,3.8-0.7c5.1-2,7.2-6.8,9.4-11.9c1.7-3.9,3.5-8,6.8-11c1.5-1.4,3.3-2.1,5.3-2.1
		c4.4,0,8.9,3.3,12.2,5.7c0.6,0.4,1.1,0.8,1.6,1.2c3.5,2.4,7.5,3.8,11.1,3.8s6.6-1.3,9-3.9c2.4-2.6,3.5-6.3,4.8-10.1
		c1.6-5,3.2-10.2,7.8-13.3c1.6-1.1,3.7-1.7,6.1-1.7c3.7,0,7.8,1.3,11.3,2.4c1.5,0.5,2.9,0.9,4.1,1.2c3.6,0.8,6.5,1.2,9.1,1.2
		c5,0,8.2-1.6,9.7-4.8c2-4.4,0.3-9.5-1.8-14.8c-0.6-1.4-1.9-1.6-2.5-1.6c-0.9,0-1.7,0.4-2.1,0.9c-0.1,0.1-0.4,0.6,0,1.6
		c0.1,0.3,0.3,0.7,0.5,1.1c1.5,3.4,3.8,8.7,1.4,11.4c-1,1.2-2.6,1.7-4.9,1.7c-1.7,0-3.5-0.3-4.8-0.6l-0.5-0.1
		c-2.8-0.5-5.5-1.2-8.2-1.9c-1-0.3-2-0.6-3-0.8c-3.6-0.9-6.3-1.3-8.8-1.3c-3.3,0-6,0.8-8.4,2.3c-4.7,3.1-6.5,8.3-8.4,13.8
		c-0.8,2.2-1.5,4.4-2.5,6.6c-1.8,3.9-4.5,5.9-7.9,5.9c-4.2,0-8.6-3-12.4-5.7c-0.6-0.4-1.1-0.8-1.6-1.1c-3.3-2.2-7.1-3.5-10.6-3.5
		c-2.5,0-4.9,0.6-7,1.9c-4,2.4-6.3,7-8.4,11.5c-0.3,0.6-0.6,1.3-0.8,1.9c-1.5,3.6-3.2,7.6-6.7,9.5c-0.9,0.5-2,0.8-3.1,0.8
		c-5.1,0-10.5-5.8-13.4-8.9l-0.5-0.6c-3-3.2-9-8.6-15.6-8.6c-1.9,0-3.9,0.5-5.7,1.4c-3.4,1.7-6,4.9-8.7,8.2
		c-3.3,4.1-6.8,8.3-12.1,9.8c-0.4,0.1-0.8,0.2-1.3,0.2c-2.6,0-4.4-2.2-5.8-3.8c-0.2-0.3-0.5-0.6-0.7-0.8c-2.1-2.3-3.9-4.2-5.6-5.8
		c-3.7-3.4-7.3-5.3-11.5-5.8C133.7,185.4,133.6,185.4,133.5,185.4z"/>
	<path class="st5" d="M345.1,195.3c-0.5,5.1-2.7,10.9-7.3,17.4c-18.6,26.3-56.5,36.6-80.6,42.1c-28.4,6.6-77.7,17.1-111.9-8.4
		c-4.5-3.3-6.4-5.5-8.9-8.3c-1.7,0-8.3,0.4-8.8,0.4c2.3,3.1,7,8.2,14.2,13.6c34.2,25.5,87,13.8,115.4,7.2
		c24.1-5.6,62-15.8,80.6-42.1C343.8,208.8,345.8,201.4,345.1,195.3z"/>
	<path class="st8" d="M342,165.7c-1.6,0.9-3.2-2.2-5.2-5.8s-3.9-7.1-2.3-7.9s6,1.2,8,4.8C344.5,160.3,343.6,164.9,342,165.7z"/>
	<path class="st8" d="M128.3,197.7c-18.3,1.4-18.4,18.1-17.6,24.8C102,211.9,110.7,193,128.3,197.7z"/>
	<g>
		<g>
			<path class="st5" d="M139,244.8c0,0,0.1-0.1,0.4-0.3c0.2-0.2,0.6-0.5,1.1-0.9c0.4-0.4,0.9-0.9,1.4-1.4c0.3-0.2,0.5-0.5,0.8-0.8
				c0.2-0.3,0.5-0.6,0.8-0.9c0.5-0.6,1-1.2,1.4-1.8c0.2-0.3,0.4-0.6,0.6-0.9c0.2-0.3,0.4-0.6,0.5-0.8c0.5-1.1,0.9-1.8,0.9-1.8
				s-0.2,0.8-0.4,2c-0.1,0.3-0.2,0.6-0.3,0.9c-0.1,0.3-0.2,0.7-0.4,1c-0.2,0.7-0.6,1.4-1,2.2c-0.2,0.4-0.4,0.7-0.6,1.1
				c-0.2,0.4-0.4,0.7-0.6,1c-0.4,0.6-0.8,1.3-1.2,1.8s-0.7,0.9-0.9,1.2s-0.4,0.4-0.4,0.4L139,244.8z"/>
			<path class="st5" d="M143,248.3c0.1-0.1,0.2-0.2,0.4-0.4s0.3-0.4,0.5-0.6c0.2-0.2,0.4-0.4,0.6-0.7c0.2-0.3,0.4-0.6,0.7-0.8
				c0.1-0.1,0.2-0.3,0.3-0.4c0.1-0.2,0.2-0.3,0.4-0.5c0.2-0.3,0.5-0.6,0.7-1c0.2-0.3,0.4-0.7,0.6-1c0.2-0.3,0.4-0.7,0.6-1
				c0.2-0.3,0.3-0.7,0.5-1c0.1-0.3,0.3-0.6,0.4-0.9c0.2-0.6,0.4-1.1,0.5-1.4c0.1-0.3,0.2-0.5,0.2-0.5s0,0.3-0.1,0.9
				c0,0.3-0.1,0.7-0.1,1.1c0,0.3-0.1,0.6-0.2,1c0,0.1,0,0.1,0,0.2c-0.1,0.3-0.1,0.6-0.2,0.9c-0.1,0.8-0.4,1.5-0.6,2.3
				c-0.1,0.4-0.3,0.8-0.4,1.2c-0.1,0.4-0.3,0.8-0.4,1.1c0,0,0,0.1-0.1,0.1c-0.2,0.4-0.4,0.8-0.6,1.2c-0.1,0.2-0.2,0.4-0.3,0.6
				c-0.1,0.2-0.2,0.4-0.3,0.6c-0.2,0.3-0.3,0.6-0.4,0.8c-0.1,0.1-0.1,0.2-0.2,0.3c-0.1,0.1-0.1,0.2-0.1,0.2l-0.7-0.5l-0.8-0.6
				l-0.6-0.4l-0.4-0.3C142.9,248.8,142.7,248.6,143,248.3C142.9,248.4,142.9,248.3,143,248.3z"/>
			<path class="st5" d="M147.1,251.7c0.1-0.1,0.2-0.3,0.4-0.5c0.1-0.2,0.3-0.4,0.5-0.6c0.2-0.2,0.4-0.5,0.5-0.7
				c0.2-0.3,0.4-0.6,0.6-0.9c0.1-0.1,0.2-0.3,0.3-0.5s0.2-0.3,0.3-0.5c0.2-0.3,0.4-0.7,0.6-1c0.2-0.4,0.3-0.7,0.5-1.1
				c0.2-0.4,0.3-0.7,0.4-1.1c0.1-0.4,0.2-0.7,0.4-1c0.1-0.3,0.2-0.6,0.3-0.9c0.1-0.6,0.2-1.1,0.3-1.5c0.1-0.3,0.1-0.5,0.1-0.5
				s0,0.3,0,0.9c0,0.3,0,0.7,0.1,1.1c0,0.3,0,0.6,0,1c0,0.1,0,0.1,0,0.2c0,0.3,0,0.6-0.1,0.9c-0.1,0.8-0.2,1.6-0.4,2.4
				c-0.1,0.4-0.2,0.8-0.3,1.2s-0.2,0.8-0.3,1.2v0.1c-0.1,0.4-0.3,0.9-0.4,1.3c-0.1,0.2-0.2,0.4-0.2,0.6c-0.1,0.2-0.2,0.4-0.2,0.6
				c-0.1,0.3-0.2,0.6-0.4,0.8c-0.1,0.1-0.1,0.2-0.2,0.3c-0.1,0.1-0.1,0.2-0.1,0.2l-0.8-0.4l-0.9-0.4c0,0-0.6-0.3-0.7-0.3l-0.5-0.2
				c0,0,0.1-0.3,0.2-0.5C147,251.8,147,251.7,147.1,251.7z"/>
			<path class="st5" d="M151.6,254.6c0.1-0.1,0.2-0.3,0.3-0.5s0.3-0.4,0.4-0.6c0.2-0.2,0.3-0.5,0.5-0.8s0.3-0.6,0.5-0.9
				c0.1-0.1,0.2-0.3,0.2-0.5c0.1-0.2,0.2-0.4,0.2-0.6c0.2-0.4,0.3-0.7,0.5-1.1c0.1-0.4,0.3-0.8,0.4-1.1s0.3-0.8,0.4-1.1
				s0.2-0.7,0.3-1.1c0.1-0.3,0.2-0.7,0.2-1c0.1-0.6,0.1-1.1,0.2-1.5c0.1-0.4,0.1-0.6,0.1-0.6s0,0.3,0.1,0.8c0,0.3,0.1,0.7,0.1,1.1
				c0.1,0.3,0,0.6,0.1,1c0,0.1,0,0.1,0,0.2c0,0.3,0,0.6,0,0.9c0,0.8-0.1,1.6-0.1,2.4c0,0.4-0.1,0.8-0.2,1.3
				c-0.1,0.4-0.1,0.8-0.2,1.2v0.1c-0.1,0.5-0.2,0.9-0.3,1.3c-0.1,0.2-0.1,0.4-0.2,0.6c-0.1,0.2-0.1,0.4-0.2,0.6
				c-0.1,0.3-0.2,0.6-0.3,0.8c-0.1,0.1-0.1,0.3-0.1,0.4c0,0.1-0.1,0.2-0.1,0.2s-0.8-0.3-0.9-0.2c-0.1,0-0.9-0.3-0.9-0.3l-0.7-0.2
				c-0.1,0-0.5-0.2-0.5-0.2S151.4,254.8,151.6,254.6C151.5,254.7,151.6,254.7,151.6,254.6z"/>
			<path class="st5" d="M156.6,257.2c0.1-0.1,0.2-0.3,0.3-0.5s0.2-0.4,0.4-0.7c0.1-0.2,0.3-0.5,0.4-0.8c0.1-0.3,0.3-0.6,0.5-1
				c0.1-0.2,0.1-0.3,0.2-0.5c0.1-0.2,0.1-0.4,0.2-0.6c0.1-0.4,0.3-0.8,0.4-1.1s0.2-0.8,0.3-1.2s0.2-0.8,0.3-1.2s0.1-0.8,0.2-1.1
				c0.1-0.4,0.1-0.7,0.1-1c0-0.6,0.1-1.2,0.1-1.5c0-0.4,0-0.6,0-0.6s0.1,0.3,0.2,0.8c0.1,0.3,0.1,0.7,0.2,1.1c0.1,0.3,0.1,0.6,0.1,1
				c0,0.1,0,0.1,0,0.2c0,0.3,0.1,0.6,0.1,0.9c0.1,0.8,0,1.6,0.1,2.4c0,0.4-0.1,0.9-0.1,1.3c0,0.4-0.1,0.8-0.1,1.2v0.1
				c-0.1,0.5-0.1,0.9-0.2,1.4c0,0.2-0.1,0.5-0.1,0.7c-0.1,0.2-0.1,0.5-0.2,0.6c-0.1,0.3-0.2,0.6-0.2,0.9c0,0.1-0.1,0.3-0.1,0.4
				s-0.1,0.2-0.1,0.2c-0.1,0-0.9-0.2-0.9-0.1c-0.1,0-0.9-0.2-1-0.2s-0.7-0.1-0.7-0.1c-0.1,0-0.6-0.1-0.6-0.1s0-0.5,0.1-0.7
				C156.5,257.3,156.5,257.3,156.6,257.2z"/>
			<path class="st5" d="M162.1,259.4c0.1-0.1,0.2-0.3,0.3-0.5s0.2-0.4,0.4-0.7c0.1-0.2,0.3-0.5,0.4-0.8c0.1-0.3,0.3-0.6,0.4-1
				c0.1-0.2,0.1-0.3,0.2-0.5c0.1-0.2,0.1-0.4,0.2-0.6c0.1-0.4,0.3-0.8,0.4-1.2c0.1-0.4,0.2-0.8,0.3-1.2s0.2-0.8,0.2-1.2
				c0.1-0.4,0.1-0.8,0.1-1.1s0.1-0.7,0.1-1c0-0.6,0-1.2,0-1.6c0-0.4,0-0.6,0-0.6s0.1,0.3,0.2,0.8c0.1,0.3,0.2,0.7,0.3,1.1
				c0.1,0.3,0.1,0.6,0.2,0.9c0,0.1,0,0.1,0,0.2c0,0.3,0.1,0.6,0.1,0.9c0.1,0.7,0.1,1.6,0.2,2.4c0,0.4,0,0.9,0,1.3
				c0,0.4,0,0.9-0.1,1.3v0.1c-0.1,0.5-0.1,1-0.2,1.4c0,0.2-0.1,0.5-0.1,0.7s-0.1,0.5-0.1,0.7c-0.1,0.3-0.1,0.6-0.2,0.9
				c0,0.1-0.1,0.3-0.1,0.4s0,0.2-0.1,0.2s-0.9-0.1-0.9,0c-0.1,0-0.9-0.1-1-0.1s-0.7-0.1-0.8,0c-0.1,0-0.6,0-0.6,0s-0.1-0.6,0-0.8
				C161.9,259.5,162,259.5,162.1,259.4z"/>
			<path class="st5" d="M168,261.2c0.1-0.1,0.2-0.3,0.3-0.5s0.2-0.4,0.4-0.7s0.2-0.5,0.4-0.9c0.1-0.3,0.3-0.7,0.4-1
				c0.1-0.2,0.1-0.4,0.2-0.5c0.1-0.2,0.1-0.4,0.2-0.6c0.1-0.4,0.2-0.8,0.3-1.2c0.1-0.4,0.2-0.8,0.2-1.2c0.1-0.4,0.1-0.8,0.2-1.2
				c0-0.4,0.1-0.8,0.1-1.2s0.1-0.7,0.1-1.1c0-0.6,0-1.2-0.1-1.6c0-0.4,0-0.6,0-0.6s0.1,0.3,0.3,0.8c0.1,0.3,0.2,0.6,0.3,1.1
				c0.1,0.3,0.1,0.6,0.2,0.9c0,0.1,0,0.1,0,0.2c0.1,0.3,0.1,0.6,0.2,0.9c0.2,0.7,0.2,1.5,0.3,2.4c0,0.4,0,0.9,0,1.3s0,0.9,0,1.3v0.1
				c0,0.5-0.1,1-0.1,1.4c0,0.2-0.1,0.5-0.1,0.7s-0.1,0.5-0.1,0.7c-0.1,0.3-0.1,0.6-0.2,0.9c0,0.1-0.1,0.3-0.1,0.4s0,0.2-0.1,0.2
				c-0.1,0.1-0.9,0-0.9,0.1c-0.1,0-0.9,0-1,0s-0.7,0-0.8,0s-0.6,0-0.6,0s-0.2-0.7-0.1-0.9C167.8,261.3,167.9,261.3,168,261.2z"/>
			<path class="st5" d="M174.3,262.6c0.1-0.1,0.2-0.3,0.3-0.5s0.2-0.5,0.3-0.7c0.1-0.3,0.2-0.6,0.4-0.9c0.1-0.3,0.2-0.7,0.4-1
				c0.1-0.2,0.1-0.4,0.2-0.5c0.1-0.2,0.1-0.4,0.1-0.6c0.1-0.4,0.2-0.8,0.3-1.2c0.1-0.4,0.1-0.8,0.2-1.3c0.1-0.4,0.1-0.8,0.1-1.2
				s0-0.8,0.1-1.2c0-0.4,0-0.8,0-1.1c0-0.7-0.1-1.2-0.1-1.6c0-0.4,0-0.6,0-0.6s0.1,0.3,0.3,0.8c0.1,0.3,0.2,0.6,0.4,1
				c0.1,0.3,0.2,0.6,0.3,0.9c0,0.1,0,0.1,0.1,0.2c0.1,0.3,0.1,0.6,0.2,0.8c0.2,0.7,0.3,1.5,0.4,2.3c0.1,0.4,0.1,0.9,0.1,1.4
				c0,0.4,0,0.9,0,1.3v0.1c0,0.5,0,1-0.1,1.4c0,0.2,0,0.5-0.1,0.7c0,0.2-0.1,0.5-0.1,0.7c0,0.4-0.1,0.7-0.2,0.9c0,0.1,0,0.3-0.1,0.4
				c0,0.1,0,0.2-0.1,0.2c-0.1,0.1-0.9,0.1-0.9,0.1c-0.1,0.1-0.9,0.1-1,0.1s-0.7,0.1-0.8,0.1c-0.1,0.1-0.6,0.1-0.6,0.1
				s-0.3-0.8-0.2-1C174.1,262.7,174.1,262.7,174.3,262.6z"/>
			<path class="st5" d="M181,263.6c0.1-0.1,0.2-0.3,0.3-0.5s0.2-0.5,0.3-0.7c0.1-0.3,0.2-0.6,0.4-0.9c0.1-0.3,0.2-0.7,0.4-1.1
				c0.1-0.2,0.1-0.4,0.2-0.5c0.1-0.2,0.1-0.4,0.1-0.6c0.1-0.4,0.2-0.8,0.2-1.3c0.1-0.4,0.1-0.9,0.2-1.3c0.1-0.4,0.1-0.9,0.1-1.3
				s0-0.8,0-1.2s0-0.8,0-1.1c-0.1-0.7-0.1-1.2-0.1-1.6c0-0.4-0.1-0.6-0.1-0.6s0.1,0.3,0.3,0.8c0.1,0.3,0.2,0.6,0.4,1
				c0.1,0.3,0.2,0.6,0.3,0.9c0,0.1,0,0.1,0.1,0.2c0.1,0.3,0.2,0.6,0.2,0.8c0.2,0.7,0.3,1.5,0.5,2.3c0.1,0.5,0.1,0.9,0.1,1.4
				c0,0.4,0.1,0.9,0.1,1.3v0.1c0,0.5,0,1,0,1.5c0,0.2,0,0.5-0.1,0.7c0,0.2,0,0.5-0.1,0.7c0,0.4-0.1,0.7-0.1,0.9c0,0.1,0,0.3-0.1,0.4
				c0,0.1,0,0.2-0.1,0.2c-0.1,0.1-0.9,0.2-0.9,0.2c-0.1,0.1-0.9,0.2-1,0.2s-0.7,0.1-0.8,0.1c-0.1,0.1-0.6,0.1-0.6,0.1
				s-0.4-0.8-0.3-1C180.7,263.8,180.8,263.7,181,263.6z"/>
			<path class="st5" d="M188,264.4c0.1-0.1,0.2-0.3,0.3-0.5s0.2-0.5,0.3-0.7c0.1-0.3,0.2-0.6,0.4-0.9c0.1-0.3,0.2-0.7,0.3-1.1
				c0.1-0.2,0.1-0.4,0.1-0.6c0.1-0.2,0.1-0.4,0.1-0.6c0.1-0.4,0.2-0.9,0.2-1.3s0.1-0.9,0.1-1.3s0.1-0.9,0.1-1.3s0-0.8,0-1.2
				s0-0.8-0.1-1.1c-0.1-0.7-0.1-1.2-0.2-1.6c-0.1-0.4-0.1-0.6-0.1-0.6s0.1,0.3,0.3,0.8c0.1,0.3,0.3,0.6,0.4,1
				c0.1,0.3,0.2,0.6,0.3,0.9c0,0.1,0,0.1,0.1,0.2c0.1,0.3,0.2,0.5,0.3,0.8c0.2,0.7,0.4,1.5,0.6,2.3c0.1,0.5,0.1,0.9,0.1,1.4
				s0.1,0.9,0.1,1.3v0.1c0,0.5,0,1,0,1.5c0,0.2,0,0.5-0.1,0.7c0,0.2,0,0.5-0.1,0.7c0,0.4-0.1,0.7-0.1,0.9c0,0.1,0,0.3-0.1,0.4
				c0,0.1,0,0.2,0,0.2c-0.1,0.1-0.8,0.2-0.9,0.3c-0.1,0.1-0.9,0.2-1,0.3c-0.1,0.1-0.7,0.2-0.8,0.2c-0.1,0.1-0.6,0.2-0.6,0.2
				s-0.4-0.9-0.4-1.1C187.7,264.5,187.8,264.5,188,264.4z"/>
			<path class="st5" d="M195.3,264.8c0.1-0.2,0.2-0.3,0.3-0.6c0.1-0.2,0.2-0.5,0.3-0.8s0.2-0.6,0.4-0.9c0.1-0.4,0.2-0.7,0.3-1.1
				c0.1-0.2,0.1-0.4,0.1-0.6s0.1-0.4,0.1-0.6c0.1-0.4,0.2-0.9,0.2-1.3s0.1-0.9,0.1-1.3c0-0.5,0-0.9,0-1.3s0-0.9,0-1.2
				c0-0.4,0-0.8-0.1-1.1c-0.1-0.7-0.2-1.3-0.2-1.7s-0.1-0.6-0.1-0.6s0.1,0.3,0.3,0.8c0.1,0.3,0.3,0.6,0.5,1c0.1,0.3,0.2,0.6,0.3,0.9
				c0,0.1,0,0.1,0.1,0.2c0.1,0.3,0.2,0.5,0.3,0.8c0.2,0.7,0.4,1.5,0.6,2.3c0.1,0.5,0.1,0.9,0.2,1.4c0.1,0.5,0.1,0.9,0.1,1.3v0.1
				c0,0.5,0,1,0,1.5c0,0.2,0,0.5,0,0.7s0,0.5-0.1,0.7c0,0.4-0.1,0.7-0.1,1c0,0.1,0,0.3-0.1,0.4c0,0.1,0,0.2,0,0.2
				c-0.1,0.1-0.8,0.3-0.9,0.4c-0.1,0.1-0.9,0.3-1,0.4s-0.7,0.2-0.8,0.3c-0.1,0.1-0.6,0.2-0.6,0.2s-0.5-1-0.5-1.1
				C195,265,195.1,264.9,195.3,264.8z"/>
			<path class="st5" d="M202.9,264.9c0.1-0.2,0.2-0.4,0.3-0.6s0.2-0.5,0.3-0.8s0.2-0.6,0.4-0.9c0.1-0.4,0.2-0.7,0.3-1.1
				c0.1-0.2,0.1-0.4,0.1-0.6s0.1-0.4,0.1-0.6c0.1-0.4,0.1-0.9,0.2-1.3c0-0.5,0.1-0.9,0.1-1.4s0-0.9,0-1.3s0-0.9-0.1-1.3
				c0-0.4,0-0.8-0.1-1.1c-0.1-0.7-0.2-1.3-0.3-1.7s-0.1-0.6-0.1-0.6s0.1,0.3,0.4,0.8c0.1,0.3,0.3,0.6,0.5,1c0.1,0.3,0.2,0.6,0.4,0.9
				c0,0.1,0.1,0.1,0.1,0.2c0.1,0.3,0.2,0.5,0.3,0.8c0.3,0.7,0.4,1.5,0.7,2.3c0.1,0.5,0.1,0.9,0.2,1.4c0.1,0.5,0.1,0.9,0.1,1.4v0.1
				c0,0.5,0.1,1,0,1.5c0,0.3,0,0.5,0,0.7s0,0.5-0.1,0.7c0,0.4-0.1,0.7-0.1,1c0,0.1,0,0.3-0.1,0.4c0,0.1,0,0.2,0,0.2
				c-0.1,0.1-0.8,0.3-0.9,0.5c-0.1,0.1-0.9,0.3-1,0.4s-0.7,0.2-0.8,0.3c-0.2,0.1-0.6,0.2-0.6,0.2s-0.6-1-0.6-1.2
				C202.6,265.1,202.7,265,202.9,264.9z"/>
			<path class="st5" d="M210.6,264.7c0.1-0.2,0.2-0.4,0.3-0.6s0.2-0.5,0.3-0.8s0.2-0.6,0.4-0.9c0.1-0.4,0.2-0.7,0.3-1.1
				c0.1-0.2,0.1-0.4,0.1-0.6s0.1-0.4,0.1-0.7c0.1-0.4,0.1-0.9,0.2-1.4c0-0.5,0.1-0.9,0.1-1.4s0-0.9,0-1.4c0-0.4-0.1-0.9-0.1-1.3
				c0-0.4-0.1-0.8-0.1-1.1c-0.1-0.7-0.2-1.3-0.3-1.7s-0.1-0.6-0.1-0.6s0.1,0.3,0.4,0.8c0.1,0.3,0.3,0.6,0.5,1
				c0.1,0.2,0.2,0.6,0.4,0.9c0,0.1,0.1,0.1,0.1,0.2c0.1,0.3,0.2,0.5,0.3,0.8c0.3,0.7,0.5,1.5,0.7,2.2c0.1,0.5,0.2,1,0.2,1.4
				c0.1,0.5,0.1,0.9,0.2,1.4v0.1c0,0.5,0.1,1,0.1,1.5c0,0.3,0,0.5,0,0.8c0,0.2,0,0.5,0,0.7c0,0.4-0.1,0.7-0.1,1c0,0.1,0,0.3-0.1,0.4
				c0,0.1,0,0.2,0,0.2c-0.1,0.1-0.8,0.4-0.9,0.5c-0.1,0.2-0.9,0.4-1,0.5s-0.7,0.3-0.8,0.4c-0.2,0.1-0.6,0.3-0.6,0.3
				s-0.7-1.1-0.7-1.2C210.3,265,210.4,264.9,210.6,264.7z"/>
			<path class="st5" d="M218.6,264.2c0.1-0.2,0.2-0.4,0.3-0.6s0.2-0.5,0.4-0.8c0.1-0.3,0.2-0.6,0.4-1c0.1-0.4,0.2-0.8,0.3-1.2
				c0.1-0.2,0.1-0.4,0.1-0.6s0.1-0.4,0.1-0.7c0.1-0.4,0.1-0.9,0.2-1.4c0-0.5,0-0.9,0-1.4s0-0.9,0-1.4s-0.1-0.9-0.1-1.3
				c-0.1-0.4-0.1-0.8-0.1-1.2c-0.1-0.7-0.2-1.3-0.3-1.8c-0.1-0.4-0.1-0.6-0.1-0.6s0.1,0.3,0.4,0.8c0.1,0.3,0.3,0.6,0.5,1
				c0.1,0.2,0.2,0.6,0.4,0.9c0,0.1,0.1,0.1,0.1,0.2c0.1,0.3,0.2,0.5,0.3,0.8c0.3,0.7,0.5,1.5,0.7,2.2c0.1,0.5,0.2,1,0.3,1.5
				s0.1,0.9,0.2,1.4v0.1c0,0.5,0.1,1,0.1,1.5c0,0.3,0,0.5,0,0.8s0,0.5,0,0.7c0,0.4-0.1,0.7-0.1,1c0,0.1,0,0.3-0.1,0.4
				c0,0.1,0,0.2,0,0.2c-0.1,0.2-0.8,0.4-0.9,0.6c-0.1,0.2-0.8,0.4-1,0.6c-0.1,0.1-0.7,0.3-0.8,0.4c-0.2,0.2-0.6,0.3-0.6,0.3
				s-0.8-1.1-0.9-1.2C218.3,264.5,218.4,264.4,218.6,264.2z"/>
			<path class="st5" d="M226.6,263.4c0.1-0.2,0.2-0.4,0.3-0.6s0.2-0.5,0.4-0.8c0.1-0.3,0.2-0.6,0.4-1c0.1-0.4,0.2-0.8,0.3-1.2
				c0.1-0.2,0.1-0.4,0.1-0.6s0.1-0.5,0.1-0.7c0.1-0.5,0.1-0.9,0.1-1.4s0-1,0-1.4c0-0.5,0-1-0.1-1.4c0-0.5-0.1-0.9-0.1-1.3
				c-0.1-0.4-0.1-0.8-0.2-1.2c-0.1-0.7-0.3-1.3-0.4-1.8c-0.1-0.4-0.1-0.7-0.1-0.7s0.1,0.3,0.4,0.7c0.1,0.3,0.3,0.6,0.5,1
				c0.1,0.2,0.2,0.6,0.4,0.9c0,0.1,0.1,0.1,0.1,0.2c0.1,0.3,0.2,0.5,0.3,0.8c0.3,0.7,0.5,1.4,0.8,2.2c0.1,0.5,0.2,1,0.3,1.5
				s0.2,0.9,0.2,1.4v0.1c0.1,0.5,0.1,1.1,0.1,1.6c0,0.3,0,0.5,0,0.8s0,0.5,0,0.8c0,0.4-0.1,0.7-0.1,1c0,0.1,0,0.3-0.1,0.4
				c0,0.1,0,0.2,0,0.2c-0.1,0.2-0.7,0.5-0.9,0.6c-0.1,0.2-0.8,0.5-0.9,0.6c-0.1,0.1-0.6,0.4-0.7,0.5c-0.2,0.2-0.6,0.4-0.6,0.4
				s-0.9-1.1-1-1.3C226.3,263.7,226.4,263.6,226.6,263.4z"/>
			<path class="st5" d="M234.8,262.3c0.1-0.2,0.2-0.4,0.3-0.6s0.2-0.5,0.4-0.8c0.1-0.3,0.2-0.6,0.4-1c0.1-0.4,0.2-0.8,0.3-1.2
				c0.1-0.2,0.1-0.4,0.1-0.6s0.1-0.5,0.1-0.7c0.1-0.5,0.1-1,0.1-1.4c0-0.5,0-1,0-1.5s-0.1-1-0.1-1.4c-0.1-0.5-0.1-0.9-0.2-1.4
				c-0.1-0.4-0.1-0.9-0.2-1.2c-0.2-0.7-0.3-1.4-0.4-1.8c-0.1-0.4-0.1-0.7-0.1-0.7s0.1,0.3,0.4,0.7c0.1,0.3,0.3,0.6,0.5,1
				c0.1,0.2,0.3,0.6,0.4,0.9c0,0.1,0.1,0.1,0.1,0.2c0.1,0.2,0.2,0.5,0.3,0.8c0.3,0.7,0.6,1.4,0.8,2.2c0.1,0.5,0.2,1,0.3,1.5
				s0.2,1,0.2,1.4v0.1c0.1,0.5,0.1,1.1,0.1,1.6c0,0.3,0,0.5,0,0.8s0,0.5,0,0.8c0,0.4-0.1,0.7-0.1,1c0,0.1,0,0.3-0.1,0.4
				c0,0.1,0,0.2,0,0.2c-0.1,0.2-0.7,0.5-0.8,0.7s-0.8,0.5-0.9,0.7c-0.1,0.2-0.6,0.4-0.7,0.5c-0.2,0.2-0.6,0.4-0.6,0.4
				s-1.1-1.2-1.1-1.3C234.4,262.7,234.5,262.5,234.8,262.3z"/>
			<path class="st5" d="M242.9,261c0.1-0.2,0.2-0.4,0.3-0.6s0.2-0.5,0.4-0.8c0.1-0.3,0.2-0.7,0.4-1c0.1-0.4,0.2-0.8,0.3-1.2
				c0.1-0.2,0.1-0.4,0.1-0.6s0.1-0.5,0.1-0.7c0.1-0.5,0.1-1,0.1-1.5s0-1,0-1.5s-0.1-1-0.1-1.5c-0.1-0.5-0.1-0.9-0.2-1.4
				s-0.1-0.9-0.2-1.2c-0.2-0.8-0.3-1.4-0.4-1.8c-0.1-0.4-0.2-0.7-0.2-0.7s0.1,0.3,0.4,0.7c0.1,0.3,0.3,0.6,0.5,1
				c0.1,0.2,0.3,0.6,0.4,0.9c0,0.1,0.1,0.1,0.1,0.2c0.1,0.2,0.2,0.5,0.4,0.8c0.3,0.7,0.6,1.4,0.9,2.2c0.1,0.5,0.3,1,0.4,1.5
				c0.1,0.5,0.2,1,0.3,1.5c0,0.1,0,0.1,0,0.1c0.1,0.6,0.1,1.1,0.1,1.6c0,0.3,0,0.5,0,0.8s0,0.5,0,0.8c0,0.4-0.1,0.7-0.1,1.1
				c0,0.1,0,0.3,0,0.4s0,0.2,0,0.2c-0.1,0.2-0.7,0.6-0.8,0.8c-0.1,0.2-0.8,0.6-0.9,0.8c-0.1,0.2-0.6,0.5-0.7,0.6
				c-0.2,0.2-0.6,0.4-0.6,0.4s-1.2-1.2-1.2-1.3C242.6,261.3,242.7,261.2,242.9,261z"/>
			<path class="st5" d="M251.1,259.3c0.1-0.2,0.2-0.4,0.3-0.6s0.2-0.5,0.4-0.9c0.1-0.3,0.2-0.7,0.4-1c0.1-0.4,0.2-0.8,0.3-1.2
				c0.1-0.2,0.1-0.4,0.1-0.7s0.1-0.5,0.1-0.7c0.1-0.5,0.1-1,0.1-1.5s0-1-0.1-1.5c0-0.5-0.1-1-0.1-1.5c-0.1-0.5-0.1-0.9-0.2-1.4
				c-0.1-0.4-0.1-0.9-0.2-1.2c-0.2-0.8-0.4-1.4-0.5-1.9c-0.1-0.4-0.2-0.7-0.2-0.7s0.1,0.3,0.4,0.7c0.1,0.3,0.3,0.6,0.5,1
				c0.1,0.2,0.3,0.5,0.4,0.9c0,0.1,0.1,0.1,0.1,0.2c0.1,0.2,0.2,0.5,0.4,0.8c0.3,0.7,0.6,1.4,0.9,2.2c0.1,0.5,0.3,1,0.4,1.5
				c0.1,0.5,0.2,1,0.3,1.5c0,0.1,0,0.1,0,0.1c0.1,0.6,0.1,1.1,0.2,1.6c0,0.3,0,0.6,0,0.8c0,0.3,0,0.5,0,0.8c0,0.4,0,0.8-0.1,1.1
				c0,0.1,0,0.3,0,0.4s0,0.2,0,0.2c-0.1,0.2-0.6,0.6-0.8,0.8c-0.2,0.2-0.7,0.6-0.9,0.8c-0.1,0.2-0.6,0.5-0.7,0.6
				c-0.2,0.2-0.5,0.5-0.5,0.5s-1.3-1.2-1.3-1.3C250.7,259.6,250.8,259.5,251.1,259.3z"/>
			<path class="st5" d="M259.1,257.3c0.1-0.2,0.2-0.4,0.3-0.7c0.1-0.2,0.2-0.5,0.4-0.9c0.1-0.3,0.2-0.7,0.4-1.1
				c0.1-0.4,0.2-0.8,0.3-1.3c0-0.2,0.1-0.4,0.1-0.7c0-0.2,0.1-0.5,0.1-0.7c0-0.5,0.1-1,0.1-1.5s0-1-0.1-1.6c0-0.5-0.1-1-0.2-1.5
				s-0.2-1-0.3-1.4s-0.2-0.9-0.3-1.3c-0.2-0.8-0.4-1.4-0.5-1.9c-0.1-0.4-0.2-0.7-0.2-0.7s0.2,0.3,0.4,0.7c0.2,0.3,0.3,0.6,0.6,0.9
				c0.1,0.2,0.3,0.5,0.4,0.8c0,0.1,0.1,0.1,0.1,0.2c0.1,0.2,0.2,0.5,0.4,0.8c0.3,0.7,0.6,1.4,0.9,2.2c0.1,0.5,0.3,1,0.4,1.6
				c0.1,0.5,0.2,1,0.3,1.5c0,0.1,0,0.1,0,0.1c0.1,0.6,0.2,1.1,0.2,1.7c0,0.3,0,0.6,0,0.8c0,0.3,0,0.6,0,0.8c0,0.4,0,0.8-0.1,1.1
				c0,0.2,0,0.3,0,0.4c0,0.1,0,0.2,0,0.2c-0.1,0.3-0.6,0.7-0.7,0.9c-0.2,0.3-0.7,0.7-0.8,0.9c-0.1,0.2-0.5,0.5-0.6,0.6
				c-0.2,0.3-0.5,0.5-0.5,0.5s-1.4-1.2-1.4-1.3C258.8,257.7,258.9,257.5,259.1,257.3z"/>
			<path class="st5" d="M267.1,255c0.1-0.2,0.2-0.4,0.3-0.7c0.1-0.2,0.2-0.6,0.4-0.9c0.1-0.3,0.2-0.7,0.4-1.1
				c0.1-0.4,0.2-0.8,0.3-1.3c0-0.2,0.1-0.5,0.1-0.7s0-0.5,0.1-0.8c0-0.5,0-1,0-1.5s-0.1-1.1-0.1-1.6s-0.1-1-0.2-1.5s-0.2-1-0.3-1.4
				c-0.1-0.5-0.2-0.9-0.3-1.3c-0.2-0.8-0.4-1.4-0.6-1.9c-0.1-0.4-0.2-0.7-0.2-0.7s0.2,0.3,0.4,0.7c0.2,0.3,0.4,0.6,0.6,0.9
				c0.1,0.2,0.3,0.5,0.5,0.8c0,0.1,0.1,0.1,0.1,0.2c0.1,0.2,0.3,0.5,0.4,0.8c0.3,0.7,0.6,1.4,1,2.2c0.2,0.5,0.3,1,0.5,1.6
				c0.1,0.5,0.3,1,0.4,1.5c0,0.1,0,0.1,0,0.1c0.1,0.6,0.2,1.1,0.2,1.7c0,0.3,0,0.6,0,0.8c0,0.3,0,0.6,0,0.8c0,0.4,0,0.8-0.1,1.1
				c0,0.1,0,0.3,0,0.4c0,0.1,0,0.2,0,0.2c-0.1,0.3-0.5,0.7-0.7,0.9c-0.1,0.3-0.6,0.7-0.8,0.9c-0.1,0.2-0.5,0.6-0.6,0.7
				c-0.2,0.3-0.5,0.6-0.5,0.6s-1.5-1.2-1.5-1.3C266.8,255.4,266.9,255.3,267.1,255z"/>
			<path class="st5" d="M275,252.4c0.1-0.2,0.2-0.4,0.3-0.7c0.1-0.3,0.2-0.6,0.4-0.9c0.1-0.3,0.2-0.7,0.4-1.1
				c0.1-0.4,0.2-0.9,0.3-1.3c0-0.2,0.1-0.5,0.1-0.7s0-0.5,0-0.8c0-0.5,0-1,0-1.6c0-0.5-0.1-1.1-0.2-1.6s-0.2-1.1-0.3-1.6
				c-0.1-0.5-0.2-1-0.3-1.4c-0.1-0.5-0.2-0.9-0.4-1.3c-0.2-0.8-0.5-1.4-0.6-1.9s-0.2-0.7-0.2-0.7s0.2,0.3,0.5,0.7
				c0.2,0.2,0.4,0.6,0.6,0.9c0.2,0.2,0.3,0.5,0.5,0.8c0,0.1,0.1,0.1,0.1,0.2c0.1,0.2,0.3,0.5,0.4,0.8c0.4,0.6,0.7,1.4,1,2.2
				c0.2,0.5,0.4,1,0.5,1.6c0.2,0.5,0.3,1,0.4,1.5c0,0.1,0,0.1,0,0.1c0.1,0.6,0.2,1.2,0.3,1.7c0,0.3,0.1,0.6,0.1,0.9
				c0,0.3,0,0.6,0,0.8c0,0.4,0,0.8,0,1.1c0,0.2,0,0.3,0,0.4c0,0.1,0,0.2,0,0.3c-0.1,0.3-0.5,0.7-0.6,1s-0.6,0.8-0.7,1
				s-0.5,0.6-0.6,0.8c-0.2,0.3-0.5,0.6-0.5,0.6s-1.6-1.2-1.7-1.3C274.7,252.9,274.8,252.7,275,252.4z"/>
			<path class="st5" d="M282.9,249.5c0.1-0.2,0.2-0.4,0.3-0.7c0.1-0.3,0.2-0.6,0.4-0.9c0.1-0.4,0.2-0.8,0.3-1.2
				c0.1-0.4,0.2-0.9,0.2-1.4c0-0.2,0.1-0.5,0.1-0.7s0-0.5,0-0.8c0-0.5,0-1.1,0-1.6c-0.1-0.5-0.1-1.1-0.2-1.6s-0.2-1.1-0.3-1.6
				c-0.1-0.5-0.2-1-0.4-1.5s-0.3-0.9-0.4-1.3c-0.3-0.8-0.5-1.5-0.7-1.9c-0.2-0.5-0.3-0.7-0.3-0.7s0.2,0.3,0.5,0.7
				c0.2,0.2,0.4,0.6,0.6,0.9c0.2,0.2,0.3,0.5,0.5,0.8c0,0.1,0.1,0.1,0.1,0.2c0.1,0.2,0.3,0.5,0.4,0.8c0.4,0.6,0.7,1.4,1.1,2.1
				c0.2,0.5,0.4,1,0.6,1.6c0.2,0.5,0.3,1,0.5,1.5c0,0.1,0,0.1,0,0.1c0.1,0.6,0.3,1.2,0.3,1.8c0,0.3,0.1,0.6,0.1,0.9
				c0,0.3,0,0.6,0,0.9c0,0.4,0,0.8,0,1.2c0,0.2,0,0.3,0,0.4c0,0.1,0,0.2,0,0.3c-0.1,0.3-0.5,0.8-0.6,1c-0.1,0.3-0.5,0.8-0.7,1.1
				c-0.1,0.3-0.5,0.6-0.6,0.8c-0.2,0.4-0.5,0.6-0.5,0.6s-1.8-1.2-1.8-1.3C282.5,250,282.6,249.9,282.9,249.5z"/>
			<path class="st5" d="M290.5,246.3c0.1-0.2,0.2-0.5,0.3-0.8c0.1-0.3,0.2-0.6,0.3-1c0.1-0.4,0.2-0.8,0.3-1.2
				c0.1-0.4,0.2-0.9,0.2-1.4c0-0.2,0-0.5,0.1-0.7c0-0.3,0-0.5,0-0.8c0-0.5,0-1.1-0.1-1.6s-0.1-1.1-0.3-1.6c-0.1-0.6-0.2-1.1-0.4-1.6
				c-0.1-0.5-0.3-1-0.4-1.5s-0.3-0.9-0.4-1.3c-0.3-0.8-0.6-1.5-0.8-1.9s-0.3-0.7-0.3-0.7s0.2,0.3,0.5,0.7c0.2,0.2,0.4,0.6,0.6,0.9
				c0.2,0.2,0.3,0.5,0.5,0.8c0,0.1,0.1,0.1,0.1,0.2c0.1,0.2,0.3,0.5,0.5,0.8c0.4,0.6,0.8,1.4,1.1,2.1c0.2,0.5,0.4,1,0.6,1.6
				c0.2,0.5,0.4,1,0.5,1.6c0,0.1,0,0.1,0,0.2c0.1,0.6,0.3,1.2,0.4,1.8c0.1,0.3,0.1,0.6,0.1,0.9c0,0.3,0.1,0.6,0.1,0.9
				c0,0.4,0,0.8,0,1.2c0,0.2,0,0.3,0,0.5c0,0.1,0,0.2,0,0.3c-0.1,0.3-0.4,0.8-0.5,1.1c-0.1,0.4-0.5,0.8-0.6,1.1s-0.4,0.7-0.5,0.8
				c-0.2,0.4-0.4,0.7-0.4,0.7s-1.9-1.2-2-1.2C290.1,246.9,290.3,246.7,290.5,246.3z"/>
			<path class="st5" d="M297.9,242.9c0.1-0.2,0.2-0.5,0.3-0.8c0.1-0.3,0.2-0.6,0.3-1c0.1-0.4,0.2-0.8,0.3-1.2
				c0.1-0.4,0.1-0.9,0.2-1.4c0-0.2,0-0.5,0-0.8s0-0.5,0-0.8c0-0.5-0.1-1.1-0.1-1.6c-0.1-0.6-0.2-1.1-0.3-1.7
				c-0.1-0.6-0.3-1.1-0.4-1.6c-0.2-0.5-0.3-1-0.5-1.5s-0.3-0.9-0.5-1.3c-0.3-0.8-0.6-1.5-0.8-1.9s-0.3-0.7-0.3-0.7s0.2,0.3,0.5,0.7
				c0.2,0.2,0.4,0.6,0.7,0.9c0.2,0.2,0.4,0.5,0.5,0.8c0,0.1,0.1,0.1,0.1,0.2c0.2,0.2,0.3,0.5,0.5,0.7c0.4,0.6,0.8,1.4,1.2,2.1
				c0.2,0.5,0.5,1,0.7,1.6c0.2,0.5,0.4,1,0.6,1.6c0,0.1,0,0.1,0,0.1c0.2,0.6,0.3,1.2,0.4,1.8c0.1,0.3,0.1,0.6,0.1,0.9
				c0,0.3,0.1,0.6,0.1,0.9c0,0.4,0,0.8,0,1.2c0,0.2,0,0.3,0,0.5c0,0.1,0,0.2,0,0.3c-0.1,0.4-0.3,0.8-0.5,1.1
				c-0.1,0.4-0.4,0.9-0.6,1.2c-0.1,0.3-0.4,0.7-0.5,0.9c-0.2,0.4-0.4,0.7-0.4,0.7s-2.1-1.1-2.1-1.2
				C297.6,243.5,297.7,243.2,297.9,242.9z"/>
			<path class="st5" d="M305,239.1c0.1-0.2,0.2-0.5,0.3-0.8c0.1-0.3,0.2-0.6,0.3-1c0.1-0.4,0.2-0.8,0.3-1.3c0-0.5,0.1-0.9,0.1-1.5
				c0-0.3,0-0.5,0-0.8s0-0.5,0-0.8c0-0.6-0.1-1.1-0.2-1.7c-0.1-0.6-0.2-1.1-0.4-1.7c-0.1-0.6-0.3-1.1-0.5-1.6s-0.4-1-0.6-1.5
				s-0.4-0.9-0.6-1.3c-0.4-0.8-0.7-1.5-0.9-1.9c-0.2-0.5-0.4-0.7-0.4-0.7s0.2,0.2,0.5,0.7c0.2,0.2,0.4,0.5,0.7,0.9
				c0.2,0.2,0.4,0.5,0.6,0.8c0,0.1,0.1,0.1,0.1,0.2c0.2,0.2,0.3,0.5,0.5,0.7c0.4,0.6,0.9,1.3,1.3,2.1c0.3,0.5,0.5,1,0.8,1.6
				c0.2,0.5,0.5,1,0.6,1.6c0,0.1,0,0.1,0.1,0.2c0.2,0.6,0.4,1.2,0.5,1.8c0.1,0.3,0.1,0.6,0.2,0.9c0.1,0.3,0.1,0.6,0.1,0.9
				c0.1,0.4,0.1,0.8,0.1,1.2c0,0.2,0,0.3,0,0.5c0,0.1,0,0.2,0,0.3c-0.1,0.4-0.3,0.9-0.4,1.2c-0.1,0.4-0.4,0.9-0.5,1.2
				s-0.3,0.7-0.4,0.9c-0.2,0.4-0.3,0.8-0.3,0.8s-2.2-1-2.2-1.1C304.7,239.7,304.8,239.5,305,239.1z"/>
			<path class="st5" d="M311.9,235c0.1-0.2,0.2-0.5,0.2-0.8s0.2-0.7,0.3-1.1c0.1-0.4,0.1-0.8,0.2-1.3c0-0.5,0.1-1,0.1-1.5
				c0-0.3,0-0.5,0-0.8s0-0.6-0.1-0.8c-0.1-0.6-0.2-1.1-0.3-1.7c-0.1-0.6-0.3-1.1-0.5-1.7c-0.2-0.6-0.4-1.1-0.6-1.6s-0.4-1-0.7-1.5
				s-0.4-0.9-0.6-1.3c-0.4-0.8-0.8-1.5-1-1.9c-0.3-0.5-0.4-0.7-0.4-0.7s0.2,0.2,0.6,0.7c0.2,0.2,0.5,0.5,0.7,0.9
				c0.2,0.2,0.4,0.5,0.6,0.8c0,0.1,0.1,0.1,0.1,0.2c0.2,0.2,0.4,0.5,0.5,0.7c0.5,0.6,0.9,1.3,1.4,2c0.3,0.5,0.6,1,0.9,1.6
				c0.3,0.5,0.5,1,0.7,1.6c0,0.1,0,0.1,0.1,0.2c0.2,0.6,0.5,1.2,0.6,1.8c0.1,0.3,0.2,0.6,0.2,0.9s0.1,0.6,0.2,0.9
				c0.1,0.4,0.1,0.9,0.1,1.3c0,0.2,0,0.3,0,0.5c0,0.1,0,0.2,0,0.3c0,0.4-0.2,0.9-0.3,1.2c-0.1,0.4-0.3,0.9-0.4,1.3
				c-0.1,0.4-0.3,0.8-0.3,1c-0.1,0.4-0.3,0.8-0.3,0.8s-2.4-0.9-2.4-1C311.6,235.7,311.7,235.4,311.9,235z"/>
			<path class="st5" d="M318.4,230.6c0.1-0.3,0.1-0.5,0.2-0.9c0.1-0.3,0.1-0.7,0.2-1.1c0.1-0.4,0.1-0.9,0.1-1.4s0-1,0-1.5
				c0-0.3,0-0.5-0.1-0.8c0-0.3-0.1-0.6-0.1-0.8c-0.1-0.6-0.2-1.1-0.4-1.7c-0.2-0.6-0.4-1.1-0.6-1.7c-0.2-0.6-0.5-1.1-0.7-1.6
				s-0.5-1-0.8-1.5s-0.5-0.9-0.7-1.3c-0.5-0.8-0.9-1.4-1.2-1.9c-0.3-0.5-0.5-0.7-0.5-0.7s0.2,0.2,0.6,0.6c0.2,0.2,0.5,0.5,0.8,0.8
				c0.2,0.2,0.4,0.5,0.6,0.7c0,0.1,0.1,0.1,0.1,0.2c0.2,0.2,0.4,0.4,0.6,0.7c0.5,0.6,1,1.2,1.5,2c0.3,0.5,0.7,1,1,1.6
				c0.3,0.5,0.6,1,0.8,1.5c0,0.1,0,0.1,0.1,0.1c0.3,0.6,0.5,1.2,0.7,1.8c0.1,0.3,0.2,0.6,0.3,0.9c0.1,0.3,0.2,0.6,0.2,0.9
				c0.1,0.4,0.2,0.9,0.2,1.3c0,0.2,0,0.3,0.1,0.5c0,0.1,0,0.2,0,0.3c0,0.4-0.1,0.9-0.2,1.3c0,0.4-0.2,1-0.3,1.4
				c-0.1,0.4-0.2,0.8-0.3,1c-0.1,0.5-0.2,0.8-0.2,0.8l-2.5-0.8C318.1,231.4,318.2,231.1,318.4,230.6z"/>
			<path class="st5" d="M324.5,225.9c0.1-0.3,0.1-0.6,0.2-0.9c0.1-0.3,0.1-0.7,0.2-1.1c0.1-0.4,0.1-0.9,0.1-1.4s0-1-0.1-1.6
				c0-0.3-0.1-0.5-0.1-0.8s-0.1-0.6-0.2-0.8c-0.1-0.6-0.3-1.1-0.5-1.7c-0.2-0.6-0.4-1.1-0.7-1.7c-0.2-0.6-0.5-1.1-0.8-1.6
				s-0.6-1-0.9-1.4c-0.3-0.5-0.6-0.9-0.8-1.3c-0.5-0.8-1-1.4-1.3-1.9c-0.3-0.4-0.5-0.7-0.5-0.7s0.2,0.2,0.6,0.6
				c0.2,0.2,0.5,0.5,0.8,0.8c0.2,0.2,0.5,0.4,0.7,0.7c0,0.1,0.1,0.1,0.2,0.2c0.2,0.2,0.4,0.4,0.6,0.7c0.5,0.6,1.1,1.2,1.6,1.9
				c0.4,0.5,0.7,1,1.1,1.5c0.3,0.5,0.6,1,0.9,1.5c0,0.1,0.1,0.1,0.1,0.1c0.3,0.6,0.6,1.2,0.8,1.8c0.1,0.3,0.2,0.6,0.3,0.9
				c0.1,0.3,0.2,0.6,0.3,0.9c0.1,0.4,0.2,0.9,0.3,1.3c0,0.2,0.1,0.3,0.1,0.5c0,0.1,0,0.2,0,0.3c0,0.4,0,0.9-0.1,1.3
				c0,0.5-0.1,1-0.2,1.4s-0.1,0.8-0.2,1.1c-0.1,0.5-0.2,0.9-0.2,0.9l-2.7-0.6C324.2,226.7,324.3,226.4,324.5,225.9z"/>
			<path class="st5" d="M330.1,220.9c0-0.3,0.1-0.6,0.1-0.9c0-0.3,0.1-0.7,0.1-1.2c0-0.4,0-0.9,0-1.4s-0.1-1-0.2-1.6
				c0-0.3-0.1-0.6-0.2-0.8s-0.1-0.6-0.2-0.8c-0.2-0.6-0.4-1.1-0.6-1.7c-0.3-0.6-0.5-1.1-0.8-1.6s-0.6-1.1-0.9-1.6s-0.7-1-1-1.4
				s-0.6-0.9-0.9-1.2c-0.6-0.8-1.1-1.4-1.5-1.8c-0.4-0.4-0.6-0.7-0.6-0.7s0.2,0.2,0.7,0.6c0.2,0.2,0.5,0.5,0.9,0.8
				c0.2,0.2,0.5,0.4,0.8,0.7c0.1,0.1,0.1,0.1,0.2,0.1c0.2,0.2,0.4,0.4,0.7,0.6c0.6,0.5,1.1,1.1,1.8,1.8c0.4,0.5,0.8,0.9,1.2,1.5
				c0.4,0.5,0.7,1,1,1.5c0,0.1,0.1,0.1,0.1,0.1c0.3,0.6,0.7,1.1,1,1.8c0.2,0.3,0.3,0.6,0.4,0.9c0.1,0.3,0.2,0.6,0.3,0.9
				c0.2,0.4,0.3,0.9,0.4,1.3c0,0.2,0.1,0.3,0.1,0.5c0,0.1,0,0.2,0,0.3c0.1,0.4,0.1,0.9,0.1,1.4s0,1,0,1.4s-0.1,0.8-0.1,1.1
				c0,0.5-0.1,0.9-0.1,0.9l-2.8-0.4C329.9,221.7,330,221.4,330.1,220.9z"/>
			<path class="st5" d="M335.2,215.5c0-0.3,0-0.6,0-0.9c0-0.4,0-0.8,0-1.2s-0.1-0.9-0.1-1.4c-0.1-0.5-0.2-1-0.3-1.6
				c-0.1-0.3-0.1-0.6-0.2-0.8c-0.1-0.3-0.2-0.6-0.3-0.8c-0.2-0.6-0.5-1.1-0.8-1.7c-0.3-0.5-0.6-1.1-1-1.6c-0.3-0.5-0.7-1-1.1-1.5
				s-0.7-0.9-1.1-1.4c-0.4-0.4-0.7-0.8-1-1.2c-0.7-0.7-1.2-1.3-1.6-1.7s-0.6-0.6-0.6-0.6s0.3,0.2,0.7,0.5c0.3,0.2,0.6,0.4,0.9,0.7
				c0.2,0.2,0.5,0.4,0.8,0.6c0.1,0.1,0.1,0.1,0.2,0.1c0.2,0.2,0.5,0.4,0.7,0.6c0.6,0.5,1.2,1.1,1.9,1.7c0.4,0.4,0.9,0.9,1.3,1.4
				c0.4,0.4,0.8,0.9,1.2,1.4c0,0.1,0.1,0.1,0.1,0.1c0.4,0.6,0.8,1.1,1.1,1.7c0.2,0.3,0.3,0.6,0.5,0.9c0.1,0.3,0.3,0.6,0.4,0.9
				c0.2,0.4,0.3,0.9,0.5,1.3c0.1,0.2,0.1,0.3,0.2,0.5c0,0.1,0.1,0.2,0.1,0.3c0.1,0.5,0.2,0.9,0.2,1.4c0.1,0.5,0.1,1,0.1,1.4
				s0,0.8,0,1.1c0,0.6,0,0.9,0,0.9l-2.9-0.1C335.1,216.3,335.1,216,335.2,215.5z"/>
			<path class="st5" d="M339.6,209.6c0-0.3,0-0.6,0-1s0-0.8-0.1-1.2c0-0.5-0.1-0.9-0.2-1.5c-0.1-0.5-0.3-1-0.5-1.6
				c-0.1-0.3-0.2-0.5-0.3-0.8c-0.1-0.3-0.2-0.6-0.4-0.8c-0.3-0.6-0.6-1.1-0.9-1.6c-0.4-0.5-0.7-1.1-1.1-1.5c-0.4-0.5-0.8-1-1.2-1.4
				c-0.4-0.4-0.8-0.9-1.2-1.3c-0.4-0.4-0.8-0.8-1.2-1.1c-0.7-0.7-1.4-1.2-1.8-1.6s-0.7-0.6-0.7-0.6s0.3,0.2,0.8,0.5
				c0.3,0.2,0.6,0.4,1,0.6c0.3,0.2,0.5,0.4,0.9,0.6c0.1,0,0.1,0.1,0.2,0.1c0.2,0.2,0.5,0.3,0.8,0.5c0.6,0.4,1.3,0.9,2,1.5
				c0.5,0.4,1,0.8,1.5,1.3c0.5,0.4,0.9,0.9,1.3,1.3l0.1,0.1c0.5,0.5,0.9,1.1,1.3,1.6c0.2,0.3,0.4,0.6,0.6,0.9
				c0.2,0.3,0.4,0.6,0.5,0.9c0.2,0.4,0.4,0.8,0.6,1.3c0.1,0.2,0.1,0.3,0.2,0.5c0,0.1,0.1,0.2,0.1,0.3c0.1,0.5,0.3,0.9,0.4,1.3
				c0.1,0.5,0.2,1,0.3,1.4c0.1,0.4,0.1,0.8,0.2,1.1c0.1,0.6,0.1,0.9,0.1,0.9l-3,0.2C339.6,210.5,339.6,210.2,339.6,209.6z"/>
			<path class="st5" d="M344.7,201.7v-0.8c0-0.6,0.2-1.2,0.5-1.8c-0.1-0.2-0.1-0.3-0.2-0.5c-0.3-0.6-0.6-1.1-1-1.7
				c-0.2-0.3-0.4-0.6-0.6-0.8s-0.4-0.6-0.7-0.8c-0.5-0.5-1-1-1.5-1.5s-1-0.9-1.6-1.3c-0.5-0.4-1.1-0.8-1.6-1.1
				c-1.1-0.7-2.1-1.3-3-1.8s-1.6-0.9-2.2-1.1s-0.8-0.4-0.8-0.4s0.3,0.2,0.8,0.5s1.2,0.8,2,1.4c0.8,0.6,1.7,1.3,2.7,2.1
				c0.5,0.4,0.9,0.8,1.4,1.3c0.5,0.4,0.9,0.9,1.3,1.4s0.8,1,1.1,1.6c0.2,0.3,0.3,0.5,0.5,0.8c0.1,0.3,0.3,0.5,0.4,0.8
				c0.2,0.5,0.4,1.1,0.6,1.6c0.1,0.5,0.3,1,0.4,1.5s0.2,0.9,0.2,1.2c0,0.4,0.1,0.7,0.1,1c0,0.6,0.1,0.9,0.1,0.9l0.9-0.1v-0.3
				c0-0.5,0.1-1,0.3-1.4C344.8,202.2,344.7,201.9,344.7,201.7z"/>
		</g>
	</g>
	<g>
		<g>
			<path class="st9" d="M186.6,158.9c0,0-0.7-0.5-1.9-1.3c-0.6-0.4-1.3-1-2.1-1.7c-0.4-0.3-0.8-0.7-1.2-1.1
				c-0.4-0.4-0.9-0.8-1.3-1.4c-0.8-1-1.7-2.2-2.3-3.7c-0.6-1.4-1.1-3.3-0.6-5.2c0.4-1.9,1.4-3.5,2.5-4.9s2.3-2.6,3.5-3.8
				c2.3-2.3,4.5-4.6,5.3-7.2c0.4-1.3,0.6-2.6,0.4-3.9c-0.1-1.3-0.5-2.5-0.8-3.7c-0.1-0.6-0.4-1.1-0.6-1.6c-0.2-0.5-0.4-1-0.6-1.4
				c-0.5-0.9-0.8-1.7-1.2-2.3c-0.7-1.3-1.1-2-1.1-2s0.6,0.6,1.6,1.6c0.5,0.5,1.1,1.2,1.7,2c0.3,0.4,0.6,0.9,1,1.3
				c0.3,0.5,0.7,1,1,1.6c0.6,1.2,1.2,2.5,1.5,4c0.4,1.5,0.4,3.3,0,5c-0.4,1.7-1.2,3.4-2.3,4.9c-1,1.4-2.3,2.7-3.4,3.9
				c-1.2,1.2-2.4,2.3-3.4,3.4c-1,1.1-1.8,2.3-2.1,3.5c-0.4,1.2-0.3,2.5,0.1,3.7c0.3,1.2,0.9,2.4,1.5,3.4c0.3,0.5,0.7,1,0.9,1.5
				c0.3,0.5,0.6,0.9,0.9,1.3c0.6,0.8,1.1,1.5,1.6,2.1C186.1,158.3,186.6,158.9,186.6,158.9z"/>
			<path class="st9" d="M231.5,155.1c0,0-0.9-0.7-2.5-1.9c-0.8-0.6-1.7-1.4-2.7-2.3c-0.5-0.4-1-1-1.6-1.6c-0.5-0.6-1.1-1.1-1.6-1.8
				c-1.1-1.4-2.2-2.9-3-4.8c-0.4-0.9-0.7-2-0.9-3.1c0-0.6-0.1-1.1-0.1-1.7c0.1-0.6,0.1-1.2,0.2-1.8c0.5-2.4,1.8-4.5,3.2-6.3
				c1.5-1.8,3.1-3.4,4.6-4.9c1.6-1.6,3.1-3.1,4.3-4.7s2.2-3.3,2.8-5.1c0.2-0.4,0.2-0.9,0.3-1.3s0.2-0.9,0.2-1.3c0-0.5,0-0.9,0.1-1.3
				c0-0.4-0.1-0.9-0.1-1.3c-0.2-1.8-0.7-3.4-1.2-4.9c-0.2-0.8-0.6-1.4-0.9-2.1c-0.3-0.7-0.6-1.3-0.9-1.9c-0.7-1.2-1.1-2.2-1.7-3.1
				c-1-1.7-1.6-2.6-1.6-2.6s0.8,0.8,2.1,2.2c0.7,0.7,1.4,1.7,2.2,2.8c0.4,0.5,0.8,1.2,1.2,1.8c0.2,0.3,0.4,0.7,0.6,1
				c0.2,0.3,0.4,0.7,0.6,1.1c0.8,1.5,1.6,3.3,1.9,5.3c0.5,2,0.5,4.3-0.1,6.5c-0.5,2.2-1.6,4.4-3,6.3s-3,3.5-4.6,5.1
				s-3.2,3.1-4.5,4.7s-2.4,3.2-2.9,4.9s-0.3,3.5,0.2,5.1c0.5,1.7,1.4,3.2,2.2,4.6c0.4,0.7,0.9,1.3,1.3,1.9c0.4,0.6,0.8,1.2,1.3,1.7
				c0.9,1,1.5,2,2.2,2.7C230.8,154.3,231.5,155.1,231.5,155.1z"/>
			<path class="st9" d="M272.1,143.7c0,0-0.5-0.3-1.4-0.9c-0.4-0.3-1-0.7-1.5-1.1c-0.6-0.5-1.2-1-1.8-1.7c-0.6-0.7-1.3-1.5-1.8-2.6
				s-0.8-2.4-0.5-3.9c0.3-1.4,1-2.6,1.8-3.6s1.7-1.9,2.5-2.7c0.8-0.8,1.6-1.6,2.2-2.4s1.1-1.6,1.4-2.4s0.4-1.7,0.3-2.6
				c0-0.9-0.2-1.7-0.5-2.5c-0.1-0.4-0.3-0.8-0.4-1.1c-0.1-0.4-0.2-0.7-0.4-1c-0.3-0.6-0.5-1.2-0.8-1.7c-0.5-0.9-0.7-1.5-0.7-1.5
				s0.5,0.4,1.2,1.1c0.4,0.3,0.8,0.8,1.3,1.4s1,1.2,1.5,2.1c0.5,0.8,0.9,1.8,1.2,2.9c0.3,1.1,0.3,2.4,0,3.7
				c-0.3,1.3-0.9,2.6-1.6,3.6c-0.8,1.1-1.6,2-2.5,2.8s-1.7,1.6-2.4,2.4c-0.7,0.8-1.2,1.5-1.4,2.3c-0.2,0.7-0.2,1.5,0,2.4
				c0.2,0.8,0.6,1.6,1,2.4c0.2,0.4,0.4,0.7,0.6,1s0.4,0.7,0.6,0.9c0.4,0.6,0.7,1.1,1.1,1.5C271.8,143.2,272.1,143.7,272.1,143.7z"/>
		</g>
	</g>
	<path class="st10" d="M134,192.8c4.7,0.6,8.6,5.5,11.6,8.8c3.6,3.9,6.8,7.6,12.6,7.4c10.4-0.4,14.8-12,22-17.6
		c8.5-6.6,16,5.4,21.6,10.3c4.5,3.9,11.7,7.1,17.7,4.8c9.9-3.9,9.5-16.7,16.7-23.1c5.3-4.7,12.9,2,17.1,4.9
		c6.8,4.7,16.1,6.3,22.2-0.4c5.9-6.4,4.9-18.2,12.2-23.1c5.4-3.6,14.7,0.9,20.2,2.2c6.5,1.5,17.1,3.2,20.6-4.5
		c2.4-5.2,0.2-11.1-1.8-16.1c-1.9-4.7-9.5-2.6-7.6,2.1c1,2.4,4.1,8.6,2.1,10.8c-1.7,2-6.5,0.9-8.6,0.5c-3.7-0.7-7.4-1.8-11.1-2.7
		c-6.2-1.6-12.9-2.5-18.5,1.2c-7.2,4.8-8.1,13.8-11.5,21c-4.6,9.9-13.4,2.6-19.6-1.6c-5.7-3.9-13.2-5.3-19.3-1.7
		c-4.5,2.7-6.9,7.7-9,12.2c-1.6,3.6-3.2,8.7-6.8,10.7c-5.1,2.8-12.1-5.3-15-8.4c-5.9-6.3-14.5-11.9-23.2-7.5
		c-8.2,4.1-11.6,15.3-20.4,17.9c-2.6,0.8-4.6-2.4-6-4c-1.8-2-3.7-4-5.7-5.9c-3.6-3.4-7.5-5.6-12.4-6.2
		C129,184.2,129,192.1,134,192.8L134,192.8z"/>
</g>
<g>
	<g>
		<path class="st11" d="M121.7,120.3c-0.6,0.8-1.2,1.6-1.6,2.2c0.2,0.6,0.3,1.1,0.5,1.6s0.3,0.9,0.5,1.4c0.1,0.2,0.1,0.4,0,0.6
			s-0.3,0.3-0.6,0.4c-0.2,0.1-0.4,0.2-0.6,0.2c-0.2,0.1-0.4,0.2-0.7,0.2c-0.2,0-0.4,0.1-0.5,0.1s-0.3,0-0.4,0s-0.2-0.1-0.4-0.2
			s-0.3-0.3-0.4-0.6c-0.4-0.9-0.9-2-1.4-3.3s-1-2.6-1.5-4s-1-2.8-1.4-4.2c-0.5-1.4-0.8-2.6-1.2-3.8c-0.1-0.4-0.1-0.8-0.1-1.2
			c0.1-0.4,0.4-0.8,0.8-1.2c0.4-0.4,0.8-0.7,1.2-0.9c0.3-0.3,0.7-0.5,1-0.7s0.6-0.4,0.9-0.5c0.3-0.2,0.6-0.3,0.8-0.5
			c0.4-0.2,0.7-0.2,1-0.1c0.2,0.1,0.5,0.3,0.8,0.6c0.6,0.8,1.3,1.6,2.2,2.5s1.7,1.9,2.7,2.9s1.9,2,2.8,3s1.8,1.9,2.7,2.7
			c0.2,0.2,0.2,0.3,0.2,0.5c0,0.1-0.1,0.3-0.4,0.6s-0.5,0.5-0.7,0.7s-0.5,0.4-0.8,0.5c-0.3,0.2-0.6,0.2-0.8,0.2
			c-0.2,0-0.4-0.1-0.8-0.4c-0.3-0.2-0.7-0.5-1-0.8c-0.4-0.3-0.7-0.7-1.2-1C122.9,118.7,122.3,119.5,121.7,120.3z M120,117.1
			c0.4-0.5,0.8-0.9,1.2-1.4c-0.8-0.8-1.6-1.6-2.4-2.3c-0.8-0.8-1.5-1.6-2.3-2.4c0.3,1.1,0.7,2.3,1,3.6c0.4,1.3,0.8,2.6,1.2,4
			C119.2,118.1,119.6,117.6,120,117.1z"/>
		<path class="st11" d="M134.3,113.2c-0.6,0.7-1.2,1.4-1.7,2c-0.2,0.2-0.3,0.4-0.5,0.6c-0.1,0.1-0.3,0.2-0.4,0.3s-0.3,0.1-0.4,0.1
			c-0.1,0-0.2,0-0.3,0c-0.3,0-0.5,0-0.8,0s-0.6,0-1,0c-0.3,0-0.6-0.1-0.8-0.2s-0.4-0.3-0.6-0.6c-0.3-0.4-0.7-1-1-1.6
			c-0.4-0.6-0.8-1.3-1.2-2.1c-0.4-0.7-0.9-1.5-1.3-2.3s-0.9-1.6-1.3-2.4s-0.8-1.6-1.2-2.4s-0.7-1.5-1-2.1c-0.1-0.4-0.2-0.7,0-0.9
			s0.4-0.4,0.8-0.5c0.4-0.2,0.8-0.3,1.3-0.5s1-0.3,1.4-0.3s0.8,0,0.9,0.1s0.3,0.3,0.5,0.7c0.3,0.8,0.7,1.7,1.1,2.6s0.8,1.9,1.3,2.9
			s0.9,1.9,1.3,2.9c0.4,1,0.9,1.9,1.3,2.7c0.4-0.5,0.8-0.9,1.2-1.3s0.8-0.8,1.3-1.2c0.3-0.3,0.5-0.4,0.7-0.5s0.4-0.1,0.7,0.1
			c0.3,0.1,0.5,0.2,0.8,0.3c0.2,0.1,0.4,0.3,0.6,0.4c0.2,0.2,0.4,0.3,0.4,0.4s-0.1,0.3-0.4,0.7C135.4,111.8,134.9,112.4,134.3,113.2
			z"/>
		<path class="st11" d="M137.8,100.7c-0.2-1.1-0.4-2.1-0.5-3s-0.3-1.9-0.4-2.7s-0.2-1.4-0.2-1.8c0-0.3,0-0.6,0.1-0.8
			c0.1-0.2,0.4-0.3,0.8-0.5c0.4-0.2,0.7-0.2,1-0.3c0.3-0.1,0.6-0.1,1-0.2c0.2,0,0.4-0.1,0.5-0.1s0.2,0.1,0.3,0.1
			c0.1,0.1,0.2,0.2,0.3,0.3c0.1,0.1,0.2,0.3,0.3,0.4c0.1,0.2,0.3,0.5,0.6,1s0.6,1.1,0.9,1.7s0.8,1.4,1.2,2.1s0.8,1.5,1.2,2.2
			c-0.1-0.7-0.2-1.5-0.4-2.3c-0.1-0.8-0.2-1.6-0.4-2.4s-0.2-1.6-0.4-2.4s-0.2-1.5-0.3-2.2s-0.2-1.3-0.2-1.8c-0.1-0.6-0.1-1-0.2-1.3
			c-0.1-0.5,0-0.8,0.1-0.9c0.1-0.2,0.4-0.3,0.9-0.4c0.3,0,0.7-0.1,1.1-0.1c0.4,0,0.7,0,1.1,0c0.4,0.1,0.7,0.3,0.9,0.6s0.3,0.6,0.4,1
			c0.1,0.7,0.1,1.5,0.2,2.4c0.1,0.9,0.2,1.8,0.3,2.8s0.2,1.9,0.4,2.9c0.1,1,0.3,1.9,0.4,2.9c0.1,0.9,0.3,1.8,0.4,2.6
			s0.2,1.5,0.3,2.1c0,0.3,0,0.5-0.2,0.7s-0.4,0.4-0.8,0.6c-0.2,0.1-0.4,0.2-0.6,0.2c-0.2,0.1-0.3,0.1-0.5,0.2
			c-0.1,0.1-0.3,0.1-0.5,0.1s-0.3,0.1-0.5,0.2c-0.4,0.1-0.7,0.1-1,0s-0.5-0.3-0.7-0.5s-0.4-0.5-0.7-0.8s-0.6-0.7-0.9-1
			c-0.3-0.4-0.6-0.8-0.9-1.2c-0.3-0.4-0.6-0.8-0.9-1.2c0.1,0.7,0.1,1.4,0.2,2.1c0.1,0.7,0.2,1.4,0.2,2.1s0.2,1.3,0.2,1.9
			c0.1,0.6,0.1,1,0.2,1.4c0,0.3-0.1,0.6-0.2,0.7c-0.1,0.1-0.3,0.3-0.6,0.4c-0.4,0.2-0.8,0.3-1.2,0.4s-0.8,0.2-1.1,0.3
			c-0.3,0.1-0.6,0.1-0.8,0s-0.4-0.3-0.7-0.6c-0.4-0.4-0.8-0.9-1.3-1.4s-1-1.2-1.5-1.8c-0.5-0.7-1.1-1.4-1.6-2.2
			c-0.6-0.8-1.1-1.5-1.7-2.3s-1.1-1.5-1.6-2.3s-1-1.4-1.4-2.1c-0.2-0.4-0.3-0.7-0.2-0.8c0.1-0.2,0.3-0.4,0.7-0.5
			c0.5-0.2,0.9-0.3,1.3-0.5c0.4-0.1,0.8-0.2,1.2-0.2c0.2,0,0.5,0,0.7,0.1s0.4,0.2,0.5,0.3c0.2,0.1,0.3,0.3,0.4,0.4
			c0.1,0.2,0.2,0.3,0.3,0.5c0.2,0.3,0.4,0.8,0.8,1.3c0.3,0.6,0.7,1.2,1.2,2c0.4,0.7,0.9,1.5,1.4,2.2c0.5,0.8,0.9,1.5,1.4,2.2
			C138.2,102.7,138,101.7,137.8,100.7z"/>
		<path class="st11" d="M158,94c-0.9,0.6-1.6,1.1-2.2,1.7c0,0.6,0,1.1,0,1.6s0,1,0.1,1.5c0,0.3-0.1,0.4-0.2,0.5
			c-0.1,0.1-0.4,0.2-0.7,0.2c-0.2,0-0.4,0-0.6,0.1c-0.2,0-0.5,0-0.7,0s-0.4,0-0.5-0.1c-0.1,0-0.3-0.1-0.4-0.1s-0.2-0.2-0.3-0.3
			c-0.1-0.2-0.1-0.4-0.2-0.7c-0.1-1-0.2-2.2-0.3-3.5c-0.1-1.4-0.2-2.8-0.2-4.3c-0.1-1.5-0.1-2.9-0.1-4.4s0-2.8,0.1-3.9
			c0-0.4,0.1-0.8,0.3-1.2c0.2-0.3,0.6-0.6,1.2-0.9c0.5-0.2,1-0.4,1.4-0.5s0.8-0.2,1.2-0.3c0.4-0.1,0.7-0.2,1-0.2
			c0.3-0.1,0.6-0.1,0.9-0.2c0.4-0.1,0.8,0,1,0.2s0.4,0.4,0.5,0.8c0.4,0.9,0.8,1.9,1.3,3.1s1,2.3,1.6,3.6s1.2,2.5,1.8,3.7
			s1.2,2.4,1.7,3.4c0.1,0.2,0.1,0.4,0.1,0.5s-0.2,0.3-0.6,0.4s-0.6,0.3-0.9,0.4c-0.3,0.1-0.6,0.2-0.9,0.2c-0.3,0.1-0.6,0.1-0.8,0
			s-0.4-0.3-0.6-0.6c-0.2-0.3-0.5-0.7-0.7-1.1s-0.5-0.8-0.8-1.3C159.6,92.8,158.8,93.4,158,94z M157.3,90.4c0.5-0.3,1.1-0.7,1.6-1
			c-0.5-1-1-2-1.5-3s-1-2-1.4-3c-0.1,1.1-0.1,2.4-0.1,3.7c0,1.4-0.1,2.8-0.1,4.2C156.3,91.1,156.8,90.7,157.3,90.4z"/>
		<path class="st11" d="M174.3,77.1c-0.2,0.9-0.4,1.8-0.6,2.8s-0.5,2.1-0.7,3.2c-0.3,1.1-0.5,2.2-0.8,3.2c0.1,0.9,0.2,1.8,0.3,2.6
			c0.1,0.8,0.2,1.6,0.4,2.3c0,0.3,0,0.5-0.1,0.6s-0.3,0.2-0.7,0.2c-0.3,0-0.7,0.1-1.1,0.1c-0.4,0-0.7,0-1,0
			c-0.4-0.1-0.6-0.2-0.8-0.3s-0.3-0.4-0.4-0.7c-0.1-0.6-0.3-1.2-0.5-2s-0.4-1.6-0.6-2.5c-0.6-0.7-1.1-1.4-1.8-2.1s-1.2-1.5-1.9-2.2
			c-0.6-0.8-1.2-1.5-1.8-2.2s-1.1-1.4-1.6-2c-0.3-0.3-0.4-0.5-0.4-0.7s0.2-0.3,0.5-0.5c0.4-0.2,0.8-0.3,1.1-0.5
			c0.4-0.2,0.7-0.3,1.2-0.3c0.4-0.1,0.8,0,1,0.1s0.6,0.4,0.9,0.7c0.6,0.7,1.2,1.4,1.9,2.3s1.4,1.8,2.2,2.7c0.3-1.3,0.5-2.7,0.8-4.1
			s0.5-2.8,0.7-4.2c0-0.4,0.1-0.6,0.4-0.7c0.2-0.1,0.5-0.2,0.9-0.1c0.4,0,0.7,0.1,1.1,0.3c0.4,0.1,0.7,0.3,1,0.4
			c0.2,0.1,0.3,0.2,0.4,0.3c0.1,0.1,0.2,0.2,0.2,0.3c0.1,0.1,0.1,0.3,0.1,0.4c0,0.2,0,0.4,0,0.6C174.5,75.5,174.4,76.2,174.3,77.1z"
			/>
		<path class="st11" d="M177.5,84.7c0.2-0.1,0.5-0.2,0.8-0.3c0.3-0.1,0.5-0.1,0.8-0.1s0.5,0.1,0.7,0.1c1.3,0.4,2.4,0.6,3.3,0.5
			c0.9,0,1.5-0.2,1.8-0.7c0.1-0.2,0.1-0.3,0-0.4s-0.3-0.3-0.6-0.4s-0.7-0.3-1.1-0.4c-0.4-0.1-0.9-0.3-1.4-0.4s-0.9-0.3-1.4-0.4
			s-0.9-0.3-1.3-0.5c-0.4-0.2-0.9-0.4-1.2-0.7c-0.4-0.3-0.7-0.6-1-1s-0.5-0.8-0.6-1.3s-0.2-1-0.2-1.6c0-0.5,0.1-1.1,0.2-1.7
			c0.1-0.6,0.3-1.2,0.6-1.8c0.2-0.6,0.6-1.2,0.9-1.7c0.4-0.6,0.7-1.1,1.1-1.5c0.1-0.2,0.3-0.3,0.5-0.5s0.5-0.3,0.8-0.5
			c0.3-0.1,0.6-0.2,1-0.3s0.8-0.1,1.2-0.1c0.6,0.1,1.3,0.2,2,0.3c0.7,0.2,1.3,0.3,1.8,0.6c0.3,0.2,0.6,0.4,0.8,0.6s0.4,0.4,0.5,0.6
			s0.2,0.4,0.3,0.7c0.1,0.2,0.1,0.4,0.2,0.6c0,0.4,0.1,0.8,0.1,1.2c0,0.5,0,0.9,0,1.4s0,0.9,0,1.4c0,0.4-0.1,0.8-0.1,1.1
			c-0.1,0.3-0.2,0.5-0.3,0.6s-0.4,0.2-0.8,0.1c-2-0.1-3-0.8-3.2-1.9c0-0.2-0.1-0.5-0.1-0.8s0-0.7,0-1s0-0.6-0.1-0.9
			c0-0.3-0.1-0.5-0.1-0.7c-0.1-0.2-0.2-0.2-0.3-0.2s-0.3,0.1-0.5,0.4c-0.2,0.2-0.4,0.4-0.6,0.7c-0.2,0.3-0.4,0.7-0.5,1
			c-0.2,0.4-0.3,0.8-0.4,1.2c-0.1,0.4-0.1,0.8-0.1,1.2c0,0.4,0.1,0.7,0.3,1.1c0.2,0.3,0.4,0.6,0.8,0.8c0.5,0.3,1,0.5,1.6,0.7
			s1.1,0.4,1.7,0.6c0.6,0.2,1.1,0.3,1.6,0.5s0.9,0.4,1.3,0.6s0.6,0.5,0.8,0.8s0.2,0.7,0.1,1.2c-0.1,0.3-0.2,0.7-0.3,1.1
			s-0.4,0.8-0.7,1.2c-0.3,0.4-0.7,0.8-1.2,1.1c-0.5,0.3-1.2,0.6-1.9,0.8c-1.1,0.3-2.1,0.4-3.2,0.3c-1.1-0.1-2.3-0.6-3.7-1.2
			c-0.7-0.3-1.1-0.6-1.2-0.9c-0.1-0.2,0-0.5,0.2-0.7C177,84.9,177.2,84.8,177.5,84.7z"/>
		<path class="st11" d="M204.7,69.2c-0.9,0.2-1.8,0.4-2.7,0.7c-0.1,0.6-0.2,1.2-0.2,1.9s-0.1,1.4-0.3,2.2c0.4-0.1,0.8-0.2,1.2-0.3
			c0.4-0.1,0.8-0.2,1.2-0.2c0.6-0.1,1.2,0,1.5,0.4c0.2,0.2,0.4,0.5,0.5,0.8s0.2,0.5,0.3,0.8s0.2,0.5,0.1,0.6s-0.3,0.2-0.7,0.3
			c-0.8,0.2-1.5,0.5-2.3,0.7s-1.5,0.5-2.3,0.8c-0.1,1.1-0.2,2.1-0.3,3.1s-0.1,1.8-0.2,2.6c0,0.2-0.1,0.4-0.3,0.5s-0.5,0.1-0.8,0.1
			s-0.6-0.1-1-0.1s-0.7-0.2-0.9-0.2c-0.4-0.1-0.6-0.3-0.7-0.4c-0.1-0.2-0.2-0.4-0.2-0.8s-0.1-0.9,0-1.6c0-0.7,0-1.5,0-2.4
			s0-1.8,0.1-2.8c0-1,0-2,0-3s-0.1-1.9-0.1-2.8s-0.2-1.7-0.3-2.3c0.6-0.2,1.2-0.5,1.9-0.7s1.4-0.4,2.2-0.7s1.6-0.4,2.4-0.6
			c0.8-0.2,1.6-0.3,2.4-0.5c0.2,0,0.4,0,0.5,0s0.3,0,0.4,0.1s0.2,0.1,0.4,0.2s0.3,0.2,0.4,0.4c0.4,0.6,0.7,1.1,0.9,1.7
			c0.1,0.3,0.1,0.6,0,0.7s-0.3,0.2-0.7,0.3C206.4,68.8,205.6,69,204.7,69.2z"/>
		<path class="st11" d="M212.3,80c-0.1,0.8-0.2,1.5-0.4,2.3c-0.1,0.2-0.1,0.4-0.3,0.4s-0.3,0.1-0.6,0c-0.4-0.1-0.7-0.1-1-0.2
			c-0.3,0-0.6-0.1-0.8-0.2c-0.3-0.1-0.4-0.3-0.6-0.5s-0.1-0.5-0.1-0.8s0-0.7,0.1-1.2c0-0.6,0.1-1.2,0.1-1.8c0-0.7,0.1-1.4,0.1-2.2
			s0.1-1.6,0.2-2.4c0.1-0.8,0.1-1.6,0.2-2.3c0.1-0.8,0.2-1.4,0.3-2s0.2-1.1,0.4-1.5c0.1-0.4,0.3-0.6,0.5-0.7
			c0.8-0.4,1.7-0.8,2.6-1.2c0.9-0.4,1.8-0.7,2.7-0.9c0.9-0.2,1.7-0.2,2.5-0.1s1.5,0.4,2.1,1c0.5,0.5,0.9,1,1.4,1.6
			c0.4,0.6,0.7,1.3,1,2.1c0.2,0.9,0.2,1.7-0.1,2.2c-0.4,1-1.2,1.8-2.2,2.7s-2.3,1.6-3.8,2.3c0.3,0.3,0.7,0.7,1.1,1.1
			c0.4,0.4,0.8,0.8,1.2,1.1s0.8,0.7,1.2,1.1c0.4,0.3,0.8,0.7,1.1,0.9c0.3,0.2,0.4,0.4,0.4,0.5s-0.1,0.3-0.3,0.4
			c-0.2,0.2-0.4,0.3-0.6,0.4s-0.4,0.1-0.6,0.1c-0.3,0.1-0.6,0.1-1,0.1s-0.8-0.2-1.3-0.4c-0.3-0.2-0.7-0.5-1.1-0.8s-0.9-0.7-1.3-1
			s-0.9-0.8-1.4-1.2c-0.4-0.4-0.9-0.8-1.2-1.2C212.6,78.4,212.5,79.2,212.3,80z M214.1,71.4c-0.2,0.8-0.4,1.7-0.6,2.6
			c0.9-0.3,1.7-0.8,2.4-1.2c0.7-0.5,1.3-1,1.8-1.5s0.8-0.9,1-1.4s0.3-0.8,0.2-1c-0.2-0.4-0.7-0.6-1.5-0.5c-0.4,0-0.8,0.1-1.3,0.2
			s-1,0.3-1.5,0.6C214.4,69.9,214.3,70.6,214.1,71.4z"/>
		<path class="st11" d="M227.4,65.4c0.7-0.1,1.5-0.2,2.3-0.3c0.8-0.1,1.6-0.2,2.4-0.2c0.8-0.1,1.6-0.1,2.5-0.1c0.8,0,1.2,0.3,1.4,1
			c0.2,0.3,0.3,0.6,0.3,0.9c0.1,0.3,0.1,0.6,0.2,0.9c0,0.4,0,0.6-0.1,0.7s-0.4,0.2-0.8,0.2c-0.8,0.1-1.7,0.1-2.5,0.2
			c-0.9,0.1-1.8,0.1-2.8,0.2c-0.2,0.6-0.5,1.2-0.7,1.9c-0.2,0.7-0.4,1.3-0.7,2c0.4,0,0.8-0.1,1.2-0.1s0.8,0,1.3,0
			c0.4,0,0.7,0.1,0.9,0.2s0.4,0.3,0.5,0.6c0.1,0.3,0.3,0.6,0.3,0.8c0.1,0.3,0.1,0.5,0.2,0.8c0.1,0.3,0.1,0.5,0,0.6s-0.3,0.2-0.7,0.2
			c-0.8,0.1-1.7,0.2-2.5,0.3c-0.9,0.1-1.7,0.2-2.5,0.3c-0.1,0.4-0.2,0.8-0.4,1.2s-0.2,0.8-0.4,1.1c0.6-0.1,1.2-0.1,1.8-0.2
			c0.6,0,1.2-0.1,1.9-0.1c0.4,0,0.7,0,0.9,0.1s0.4,0.3,0.5,0.5c0.1,0.3,0.3,0.5,0.3,0.8s0.2,0.5,0.3,0.7c0.1,0.3,0,0.5,0,0.6
			c-0.1,0.1-0.3,0.2-0.7,0.2c-0.9,0.1-1.8,0.2-2.7,0.4c-0.9,0.1-1.8,0.2-2.6,0.3c-0.6,0.1-1,0.1-1.2,0c-0.3-0.1-0.5-0.2-0.7-0.4
			c-0.2-0.2-0.4-0.3-0.6-0.5c-0.2-0.2-0.4-0.4-0.7-0.6c-0.2-0.2-0.4-0.4-0.5-0.7c-0.1-0.3-0.1-0.6-0.1-0.9l2.7-13.4
			C226.1,65.6,226.7,65.5,227.4,65.4z"/>
		<path class="st11" d="M234.9,78.1c0.3,0,0.6,0,0.8,0.1c0.3,0.1,0.5,0.1,0.8,0.2c0.2,0.1,0.4,0.2,0.6,0.4c1.1,0.9,2,1.5,2.8,1.8
			s1.4,0.3,1.9,0.1c0.2-0.1,0.2-0.2,0.2-0.4c-0.1-0.2-0.2-0.4-0.4-0.6s-0.5-0.5-0.8-0.8s-0.7-0.6-1.1-0.9c-0.4-0.3-0.8-0.6-1.1-1
			s-0.7-0.7-1-1s-0.6-0.7-0.9-1.2c-0.2-0.4-0.4-0.9-0.5-1.3c-0.1-0.5-0.1-0.9-0.1-1.4c0.1-0.5,0.2-1,0.5-1.5
			c0.2-0.5,0.5-0.9,0.8-1.4c0.4-0.5,0.8-1,1.2-1.4s1-0.9,1.5-1.2s1.1-0.7,1.6-0.9c0.2-0.1,0.4-0.2,0.7-0.3c0.3-0.1,0.6-0.1,0.9-0.1
			c0.3,0,0.7,0,1.1,0.1c0.4,0.1,0.8,0.2,1.1,0.4c0.6,0.3,1.1,0.7,1.7,1.1c0.6,0.4,1,0.8,1.4,1.3c0.2,0.3,0.4,0.6,0.5,0.8
			c0.1,0.3,0.2,0.5,0.2,0.8c0,0.2,0,0.5,0,0.7s-0.1,0.5-0.1,0.7c-0.1,0.3-0.2,0.7-0.4,1.2s-0.3,0.9-0.5,1.3s-0.4,0.9-0.6,1.3
			s-0.4,0.7-0.6,1c-0.2,0.2-0.4,0.4-0.6,0.4c-0.2,0.1-0.4,0-0.7-0.2c-1.8-0.9-2.5-1.9-2.2-3c0.1-0.2,0.1-0.5,0.3-0.8
			c0.1-0.3,0.2-0.6,0.4-0.9c0.1-0.3,0.2-0.6,0.3-0.9s0.1-0.5,0.1-0.7s-0.1-0.3-0.2-0.3s-0.3,0-0.6,0.2c-0.2,0.1-0.5,0.2-0.8,0.4
			s-0.6,0.5-0.9,0.7c-0.3,0.3-0.6,0.6-0.8,0.9s-0.4,0.7-0.5,1.1s-0.2,0.7-0.1,1.1c0,0.4,0.2,0.7,0.4,1c0.3,0.4,0.7,0.8,1.2,1.2
			c0.4,0.4,0.9,0.8,1.3,1.2c0.4,0.4,0.8,0.8,1.2,1.1s0.7,0.7,0.9,1.1s0.4,0.7,0.4,1.1s-0.1,0.7-0.4,1.1c-0.2,0.3-0.4,0.5-0.7,0.8
			s-0.6,0.6-1.1,0.8c-0.4,0.2-1,0.4-1.6,0.5s-1.3,0.1-2.1,0c-1.1-0.1-2.1-0.5-3.1-1s-1.9-1.4-2.9-2.6c-0.5-0.6-0.8-1-0.8-1.3
			s0.2-0.4,0.5-0.5C234.3,78.2,234.6,78.2,234.9,78.1z"/>
		<path class="st11" d="M262.3,75.8c-0.7,1.1-1.3,2.3-2,3.5s-1.3,2.4-2,3.6c-0.6,1.2-1.2,2.3-1.7,3.4c0,0.2-0.1,0.3-0.2,0.3
			s-0.2,0-0.4,0c-0.2-0.1-0.4-0.1-0.6-0.2c-0.2-0.1-0.4-0.2-0.7-0.4c-0.5-0.3-0.9-0.6-1.1-0.9c-0.2-0.3-0.3-0.7,0-1.1
			c0.2-0.5,0.4-1,0.6-1.6s0.5-1.3,0.9-2c-0.6-0.1-1.1-0.1-1.7-0.2c-0.6-0.1-1.1-0.1-1.7-0.1c-0.4,0.9-0.8,1.7-1.1,2.4
			c-0.3,0.8-0.6,1.5-0.9,2.1c-0.1,0.2-0.2,0.3-0.4,0.4s-0.4,0-0.7-0.2s-0.6-0.3-1-0.5c-0.3-0.2-0.6-0.4-0.8-0.6
			c-0.3-0.2-0.4-0.4-0.5-0.7s-0.1-0.5,0.1-0.8c0.4-0.9,0.9-1.9,1.3-3.1c0.5-1.2,0.9-2.4,1.4-3.7c0.5-1.3,0.9-2.6,1.4-3.8
			s0.9-2.5,1.3-3.5c0.2-0.4,0.4-0.6,0.6-0.7c0.2,0,0.5,0.1,0.9,0.3c0.4,0.2,0.8,0.5,1.2,0.8s0.8,0.6,1.1,1c0.2,0.2,0.3,0.3,0.4,0.4
			c0.1,0.1,0.1,0.3,0.2,0.4c0,0.1,0,0.2,0,0.4c0,0.1-0.1,0.3-0.2,0.4c-0.4,0.7-0.8,1.5-1.3,2.5s-1,2-1.5,3.1
			c0.6,0.1,1.1,0.1,1.7,0.2c0.5,0.1,1.1,0.2,1.6,0.2c0.7-1.3,1.3-2.6,1.9-4c0.6-1.3,1.2-2.5,1.8-3.6c0.2-0.4,0.4-0.6,0.7-0.6
			c0.2,0,0.5,0.1,0.9,0.3c0.4,0.2,0.7,0.4,1.1,0.7c0.4,0.3,0.7,0.6,1,0.9s0.4,0.6,0.5,0.8c0,0.2,0,0.5-0.2,0.8
			C263.5,73.6,262.9,74.6,262.3,75.8z"/>
		<path class="st11" d="M272.9,91.8c-0.4,0-0.8-0.1-1.2-0.2c-0.4-0.1-0.8-0.2-1.3-0.4s-0.8-0.5-1.2-0.8c-0.4-0.3-0.8-0.8-1.2-1.3
			c-0.4-0.6-0.7-1.2-0.8-1.7c-0.1-0.5-0.2-1-0.1-1.4s0.3-0.8,0.6-1.2c0.3-0.3,0.7-0.7,1.2-0.9c0.5-0.3,1.1-0.5,1.7-0.6
			c0.6-0.2,1.3-0.3,2-0.4c0-0.3-0.1-0.5-0.1-0.7s-0.1-0.4-0.1-0.6c-0.1-0.6-0.1-1.1-0.1-1.6s0-0.9,0.2-1.3c0.1-0.4,0.3-0.8,0.5-1.1
			c0.2-0.3,0.5-0.7,0.9-1c0.3-0.3,0.7-0.6,1.2-0.8c0.4-0.2,0.9-0.4,1.4-0.5s1-0.2,1.5-0.2s1,0,1.5,0.1s0.9,0.2,1.3,0.3
			c0.4,0.1,0.8,0.3,1.1,0.6s0.6,0.6,0.9,0.9s0.5,0.9,0.8,1.5c0.6,1.4,0.7,2.7,0.3,3.7s-1.1,1.8-2.3,2.3c-0.6,0.3-1.4,0.5-2.2,0.7
			c-0.8,0.1-1.6,0.2-2.5,0.3c0.1,0.5,0.3,1,0.5,1.5s0.4,1,0.5,1.5c0.4-0.1,0.8-0.2,1.1-0.3c0.4-0.1,0.8-0.2,1.2-0.3
			c0.4-0.1,0.7-0.1,0.9,0c0.2,0.1,0.3,0.2,0.4,0.5c0,0.3,0,0.5-0.1,0.8c-0.1,0.2-0.2,0.4-0.3,0.7c-0.2,0.2-0.3,0.4-0.6,0.6
			c-0.2,0.2-0.5,0.3-0.7,0.5c-0.1,0.1-0.3,0.1-0.4,0.2s-0.2,0.1-0.4,0.2c0.1,0.3,0.3,0.6,0.4,0.9s0.2,0.5,0.4,0.8
			c0.2,0.3,0.2,0.5,0.2,0.7c-0.1,0.1-0.2,0.2-0.5,0.2c-0.3,0.1-0.5,0.1-0.7,0.1s-0.5,0-0.8-0.1c-0.1,0-0.3-0.1-0.4-0.2
			s-0.2-0.1-0.3-0.2s-0.2-0.2-0.3-0.4s-0.2-0.3-0.4-0.5c-0.1-0.2-0.2-0.4-0.3-0.6C275.1,91.9,274,91.9,272.9,91.8z M274.2,87.5
			c-0.2-0.5-0.4-1-0.5-1.5c-1,0.2-1.7,0.5-2.1,0.8c-0.5,0.3-0.8,0.6-0.9,0.9c-0.1,0.2-0.1,0.3,0,0.5c0.1,0.3,0.6,0.6,1.3,0.7
			s1.7,0.2,2.8,0.1C274.6,88.4,274.4,87.9,274.2,87.5z M277.6,82.1c0.5-0.1,0.9-0.2,1.2-0.3c0.3-0.1,0.5-0.2,0.8-0.4
			s0.5-0.4,0.7-0.7c0.2-0.2,0.3-0.5,0.4-0.8s0-0.7-0.1-1c-0.3-0.1-0.6-0.1-1-0.1s-0.7,0.1-1,0.1s-0.6,0.2-0.9,0.3
			c-0.3,0.1-0.5,0.3-0.7,0.4c-0.7,0.5-1,1.4-0.8,2.5v0.2C276.6,82.2,277.1,82.2,277.6,82.1z"/>
		<path class="st11" d="M304.8,95.2c-1,0.9-2,1.8-3,2.8c-1,0.9-2,1.9-3,2.8s-1.9,1.8-2.7,2.7c-0.1,0.2-0.2,0.2-0.3,0.2
			s-0.2-0.1-0.4-0.2s-0.3-0.2-0.5-0.4s-0.4-0.4-0.5-0.6c-0.4-0.4-0.7-0.8-0.8-1.2c-0.1-0.4,0-0.7,0.3-1.1s0.7-0.8,1.1-1.3
			s0.9-1,1.4-1.6c-0.5-0.2-1-0.4-1.6-0.7s-1-0.4-1.6-0.7c-0.7,0.7-1.3,1.3-1.8,2c-0.5,0.6-1,1.2-1.5,1.7c-0.2,0.2-0.3,0.2-0.5,0.2
			s-0.3-0.1-0.6-0.4c-0.2-0.3-0.5-0.5-0.8-0.8s-0.5-0.5-0.6-0.8c-0.2-0.3-0.3-0.6-0.3-0.8c0-0.2,0.1-0.5,0.4-0.8
			c0.7-0.7,1.4-1.5,2.2-2.5s1.6-2,2.5-3.1c0.8-1.1,1.7-2.2,2.5-3.2c0.8-1.1,1.6-2.1,2.4-2.9c0.3-0.3,0.6-0.5,0.8-0.4
			c0.2,0,0.5,0.2,0.7,0.6c0.3,0.3,0.6,0.7,0.9,1.2s0.6,0.9,0.8,1.3c0.1,0.2,0.2,0.4,0.2,0.5s0.1,0.3,0,0.4s-0.1,0.2-0.1,0.3
			c-0.1,0.1-0.2,0.2-0.3,0.4c-0.6,0.6-1.2,1.2-2,2s-1.5,1.6-2.4,2.5c0.5,0.2,1,0.5,1.5,0.7s1,0.5,1.4,0.7c1-1.1,2.1-2.1,3.1-3.2
			s2-2,2.8-2.8c0.3-0.3,0.6-0.4,0.8-0.4s0.5,0.3,0.8,0.6c0.3,0.3,0.5,0.6,0.8,1s0.5,0.8,0.7,1.2c0.2,0.4,0.2,0.7,0.2,0.9
			c0,0.2-0.2,0.4-0.5,0.7C306.7,93.5,305.8,94.3,304.8,95.2z"/>
		<path class="st11" d="M317.8,100.9c-0.1,0.5-0.3,1.1-0.5,1.6c-0.5,0.9-1.1,1.8-1.9,2.7c-0.8,0.9-1.6,1.7-2.6,2.4
			c-1,0.7-1.9,1.3-3,1.8c-1,0.5-2.1,0.8-3.2,0.8c-0.7,0-1.3-0.1-1.9-0.3c-0.6-0.2-1.1-0.6-1.7-1.2c-0.4-0.3-0.8-0.7-1.1-1.2
			c-0.4-0.4-0.7-0.9-0.9-1.3c-0.2-0.4-0.3-0.8-0.4-1.2c-0.1-0.4-0.1-0.9-0.1-1.3c0.1-0.7,0.3-1.4,0.7-2.1c0.3-0.7,0.8-1.4,1.3-2.1
			s1.1-1.3,1.8-1.9s1.5-1.2,2.2-1.6c0.8-0.5,1.7-0.8,2.5-1.1c0.9-0.3,1.8-0.5,2.7-0.5c0.6,0,1.2,0.1,1.9,0.3c0.6,0.2,1.2,0.6,1.6,1
			c0.5,0.6,1,1.2,1.4,1.8c0.4,0.6,0.7,1.2,0.8,1.8C317.9,99.8,317.9,100.3,317.8,100.9z M312.9,98.5c-0.5,0.1-1,0.2-1.7,0.4
			c-0.6,0.2-1.3,0.6-1.9,0.9c-0.7,0.4-1.3,0.8-1.8,1.2c-0.5,0.4-1,0.8-1.5,1.3s-0.9,1-1.2,1.5c-0.3,0.5-0.6,0.9-0.7,1.4
			s-0.1,0.8,0.1,1.1c0.2,0.2,0.5,0.4,0.8,0.4c0.4,0,0.8-0.1,1.4-0.2c0.5-0.2,1.1-0.4,1.7-0.8s1.2-0.8,1.9-1.3
			c0.5-0.4,1.1-0.9,1.6-1.4s1-1.1,1.4-1.6s0.7-1.1,0.9-1.5c0.2-0.5,0.2-0.8,0-1C313.7,98.5,313.4,98.4,312.9,98.5z"/>
		<path class="st11" d="M328.2,110.9c-0.5-0.4-1-0.8-1.6-1.2c-1,0.7-2,1.3-3,2s-2.1,1.4-3.1,2.1s-2,1.4-3,2.1s-1.8,1.3-2.6,1.9
			c-0.1,0.1-0.3,0.2-0.4,0.2s-0.2-0.1-0.4-0.2s-0.2-0.3-0.4-0.5c-0.1-0.2-0.3-0.4-0.4-0.7c-0.2-0.2-0.3-0.5-0.4-0.7
			s-0.2-0.4-0.2-0.7s0-0.4,0.1-0.6s0.2-0.3,0.4-0.5c0.5-0.4,1.1-1,1.8-1.6c0.7-0.6,1.5-1.3,2.4-1.9s1.7-1.3,2.6-2s1.7-1.3,2.5-1.8
			c-0.3-0.2-0.7-0.4-1-0.6s-0.6-0.4-0.8-0.5c-0.3-0.2-0.5-0.3-0.6-0.5s-0.2-0.5-0.2-0.9s0-0.8,0.1-1.3s0.2-0.9,0.3-1.2
			c0.1-0.3,0.2-0.5,0.3-0.5c0.1,0,0.3,0,0.5,0.2c0.7,0.4,1.5,0.9,2.3,1.5s1.7,1.2,2.5,1.8s1.7,1.3,2.5,1.9s1.5,1.2,2.1,1.7
			c0.3,0.3,0.5,0.5,0.6,0.7s0.1,0.4,0.1,0.6c0,0.4-0.1,0.8-0.2,1.2s-0.3,0.8-0.4,1.1c-0.1,0.3-0.3,0.4-0.4,0.5
			c-0.1,0-0.4-0.1-0.7-0.3C329.2,111.6,328.7,111.3,328.2,110.9z"/>
	</g>
</g>
<g>
	<g>
		<g>
			<path class="st12" d="M182.6,322.7c-0.6,0-1.2,0.1-1.7,0.2l-2.6,0.6c2.3-2,3.8-4.5,4.4-7.6c0.4-2.2-0.1-4.4-1.4-6
				c-1.3-1.5-3.1-2.4-5.1-2.3l0.6-4.6c0.2-1.6-0.3-3.1-1.4-4.3c-1.3-1.5-3.4-2.4-5.4-2.5c-0.5,0-1,0-1.5,0.1l-5.9,1.3
				c-2.2,0.5-4.1,2.3-4.7,4.6c-1.5,5.2-2.3,7.8-6.1,10.1l-1.1,0.7l-18.8,4.1c-0.6,0.1-1.3,0.3-1.9,0.4c-0.2,0-0.3,0-0.5,0.1l-13.7,3
				l1.9-15.2c0.2-1.6-0.3-3.1-1.3-4.3c-1.3-1.5-3.4-2.4-5.5-2.5c-0.5,0-1,0-1.5,0.1l-11,2.4c-0.7,0.2-1.4,0.4-1.9,0.8
				c-1.4-2.8-5-4.1-7.8-3.5l-10.9,2.4c-2.7,0.6-4.6,2.9-5,6.2l-2.9,23.6c-6.1,1.5-13,3.8-18.8,8.7c-5.3,4.5-8.6,11.7-8.4,18.4
				c0.1,5.1,2.2,9.3,6.1,12.3c2.8,2.2,6.3,3.3,10.2,3.4c7.7,0.1,15.6-3.9,20.4-7.7c3.3-2.6,6.1-6,8.4-10.3c0.2,0.9,0.6,1.7,1.2,2.4
				c1.3,1.5,3.4,2.5,5.5,2.5c0.5,0,1,0,1.5-0.1l11-2.4c2.7-0.6,4.6-2.9,5-6.2l0.8-6.1c1.2,1.9,2.8,3.6,4.7,4.9
				c2.7,1.8,6.1,2.7,10,2.8c4.4,0,8.3-1,10.9-1.8c5.3-1.8,9.4-5.1,12-9.5c0.6,1,1.5,1.9,2.5,2.7c1.5,1.1,3.4,1.7,5.6,1.7l0,0
				c1.3,0,2.8-0.1,4.5-0.5l12.8-2.8c2.6-0.6,4.4-1.1,6.3-1.9c3.6-1.5,6.1-4.8,7.1-9.2c0.1-0.3,0.2-0.7,0.2-1
				c0.1-0.4,0.1-0.7,0.1-1.1c0.2-1.6-0.4-3.1-1.5-4.4C186.3,323.6,184.4,322.7,182.6,322.7z"/>
			<path class="st12" d="M401.5,237.6c-1.6-1.4-3.6-2-5.8-1.5l-15.1,3.3c-2.8,0.6-4.9,3.3-5,6.3l-0.9,31c0,0.6,0,1.2,0.2,1.8
				c0,0,0,0.1-0.1,0.1c-0.6,0.8-1.1,1.6-1.5,2.6c-0.7-0.1-1.4-0.1-2.2,0.1c-0.1,0-0.2,0-0.3,0l-3.6,0.8c-1.1-3.3-3.2-6.5-5.1-9.3
				c0.6-5.6-2.2-10.5-7.1-12.4c-1.4-0.5-3-0.9-4.5-0.9c-2.4,0-4.3,0.6-5.7,2c-0.7,0.7-1.2,1.5-1.7,2.3l-4.5,7.5
				c-0.8,1.3-1.6,2.6-1.6,4.4c0,1.2,0.2,2.4,0.8,3.7l-4.2,6c-0.4,0.6-0.7,1.2-0.9,1.9c-0.7,0.6-1.3,1.3-1.8,2.1l1-7.8
				c0.2-1.6-0.3-3.1-1.4-4.3c-1.3-1.5-3.4-2.4-5.5-2.5c-0.5,0-1,0-1.5,0.1c-1.9,0.4-3.8,0.8-5.6,1.2c-3.7,0.8-7.5,1.6-11.3,2.5
				l-34,7.4c-3.5,0.8-8,1.9-11.8,4c-0.1-0.7-0.2-1.5-0.3-2.2c0-0.3-0.1-0.6-0.1-0.9s-0.1-0.5-0.2-0.8c-1.5-5.3-4.8-9.7-9.4-12.2
				c-5.1-2.8-11.6-3.6-19.4-2.2c-3,0.5-6.1,1.2-9,1.9c-1.4,0.3-2.9,0.7-4.3,1l-16.1,3.5c-3.8,0.8-5.3,3.8-6.1,6.3l-2.5,7.2
				c-0.6,1.9-0.4,3.8,0.8,5.5c1.6,2.2,4.6,3.4,7.2,2.9l7.9-1.7l-3.6,29.2c-0.2,1.6,0.3,3.1,1.4,4.3c1.3,1.5,3.4,2.4,5.5,2.5
				c0.5,0,1,0,1.5-0.1l1.7-0.4c8.3-1.8,16.9-3.7,24.6-8.2c5.1-3,9.6-7,13.1-11.7c1.2,2.1,2.9,4,5,5.4c2.7,1.8,6.1,2.7,10,2.8
				c4.4,0.1,8.3-1,10.9-1.8c5.9-2,10.3-5.8,12.8-11.1c0.8,0.9,1.7,1.6,2.7,2.3c-0.3,2.4,0,5.1,0.7,7.8c1.5,5.9,6.8,9.9,13.1,10
				c1,0,1.9-0.1,2.9-0.2c5.7-1,10.5-4.4,13.5-9.5c2-3.4,2.9-7.2,3.5-10.3c1.1-0.2,2.3-0.5,3.5-0.9c2-0.6,3.7-1.5,5.2-2.6
				c1.9,0.4,4,0.5,6.2,0.1c1.2-0.2,2.5-0.5,3.6-0.7l21-4.6c3.4-0.8,6.7-2.9,8.8-5.6c2.2,1.6,5.2,2.5,8.4,2.6c0.9,0,1.8,0,2.6-0.2
				c3.6-0.6,6.2-3.3,7.5-4.9c1.6-2.1,2.4-4.5,2.3-7.4c0.1-0.8,0-1.6-0.2-2.5c-0.1-0.6-0.3-1.1-0.6-1.7c-0.5-1.2-1.2-2.4-2.1-3.3
				c0.1-0.2,0.1-0.4,0.2-0.5l8.5-31.9c0.1-0.4,0.2-0.7,0.3-1C404.4,241.6,403.5,239.2,401.5,237.6z M235.9,297.6c0,0.2,0,0.4,0,0.5
				c-0.1,0.9-0.3,1.8-0.5,2.7l-0.1,0.4c-0.5,1.9-1.3,3.6-2.7,5.7c-0.1,0.1-0.2,0.2-0.3,0.4l1.7-13.8c0.2,0,0.4,0,0.6,0
				c0.1,0,0.2,0.1,0.3,0.1c0.1,0.2,0.3,0.5,0.5,0.8l0.1,0.1c0,0.1,0.1,0.2,0.1,0.3c0.1,0.5,0.3,0.9,0.4,1.4
				C235.9,296.5,235.9,296.9,235.9,297.6z"/>
		</g>
	</g>
	<path class="st9" d="M188.4,321.8c-0.5,0-1.1,0.1-1.5,0.2c-2.8,0.6-5.6,1.2-8.3,1.8v-0.1c4.4-1.7,7.9-4.6,8.9-9.8
		c0.8-4.2-2.3-8-6.7-7.1c0.2-1.9,0.5-3.9,0.7-5.8c0.5-3.9-3.9-6.3-7.1-5.6c-2,0.4-4,0.9-5.9,1.3s-3.5,2.1-4,3.9
		c-1.4,5.1-2.4,8.1-6.5,10.6c-0.4,0.3-0.9,0.5-1.3,0.8c-6.3,1.4-12.6,2.8-18.9,4.1c-0.6,0.1-1.3,0.3-1.9,0.4c-0.1,0-0.3,0-0.5,0.1
		c-5,1.1-10,2.2-15,3.3c0.7-5.5,1.4-11,2.1-16.5c0.5-3.9-3.9-6.3-7.1-5.6c-3.7,0.8-7.3,1.6-11,2.4c-1.1,0.2-1.9,0.8-2.6,1.5
		c-0.5-3.1-4.2-4.9-7.1-4.2c-3.6,0.8-7.3,1.6-10.9,2.4c-2.7,0.6-3.9,3-4.2,5.4c-1,8.1-2,16.1-3,24.2c-6.9,1.7-13.5,3.9-19.1,8.7
		c-8.2,7-12,21.8-2.4,29.2c8.7,6.7,21.9,1.6,29.5-4.3c4.8-3.8,8.1-9.1,10.3-14.8c-0.2,1.2-0.3,2.3-0.4,3.5c-0.5,3.9,3.9,6.3,7.1,5.6
		c3.7-0.8,7.3-1.6,11-2.4c2.7-0.6,3.9-3,4.2-5.4c0.4-3.1,0.8-6.2,1.2-9.3c1.1,2.9,3,5.5,5.8,7.4c5.7,3.8,14,2.9,20.1,0.8
		c5.6-1.9,9.8-5.5,12.3-10.7c0.6,1.5,1.6,2.9,3.1,4c2.7,2,6.2,1.7,9.3,1c4.2-0.9,8.5-1.9,12.8-2.8c2.1-0.5,4.1-1,6.1-1.9
		c3.7-1.6,5.7-5,6.5-8.6c0.1-0.3,0.1-0.6,0.2-0.9c0.1-0.4,0.1-0.7,0.1-1C194.3,324.5,191.2,321.8,188.4,321.8z"/>
	<path class="st12" d="M64.5,371.6c-4,0-7.4-1.2-10.2-3.4c-3.8-3-5.9-7.2-6.1-12.3c-0.2-6.7,3.1-13.9,8.4-18.4
		c5.8-4.9,12.7-7.2,18.8-8.7l2.9-23.6c0.4-3.3,2.3-5.6,5-6.2l10.9-2.4c2.7-0.6,6.4,0.8,7.8,3.5c0.6-0.4,1.2-0.7,1.9-0.8l11-2.4
		c0.5-0.1,1-0.1,1.5-0.1c2.1,0,4.2,1,5.5,2.5c1.1,1.2,1.5,2.7,1.3,4.3l-1.9,15.2l13.7-3c0.2,0,0.3-0.1,0.5-0.1
		c0.6-0.1,1.2-0.3,1.9-0.4l18.8-4.1l1.1-0.7c3.7-2.3,4.6-4.9,6.1-10.1c0.6-2.3,2.5-4.1,4.7-4.6l5.9-1.3c0.5-0.1,1-0.1,1.5-0.1
		c2.1,0,4.1,1,5.4,2.5c1.1,1.2,1.5,2.7,1.4,4.3l-0.6,4.6c2.1,0,3.9,0.8,5.1,2.3c1.3,1.6,1.9,3.8,1.4,6c-0.6,3.1-2,5.6-4.4,7.6
		l2.6-0.6c0.5-0.1,1.1-0.2,1.7-0.2c1.8,0,3.7,0.9,5,2.4c1.1,1.3,1.7,2.9,1.5,4.4c0,0.4-0.1,0.7-0.1,1.1c0,0.3-0.1,0.7-0.2,1
		c-1,4.4-3.5,7.7-7.1,9.2c-1.9,0.8-3.7,1.4-6.3,1.9l-12.8,2.8c-1.7,0.4-3.2,0.5-4.5,0.5l0,0c-2.2,0-4.1-0.6-5.6-1.7
		c-1-0.8-1.8-1.7-2.5-2.7c-2.6,4.5-6.7,7.8-12,9.5c-2.6,0.9-6.6,1.9-10.9,1.8c-4,0-7.3-1-10-2.8c-1.9-1.3-3.5-2.9-4.7-4.9l-0.8,6.1
		c-0.4,3.3-2.3,5.6-5,6.2l-11,2.4c-0.5,0.1-1,0.1-1.5,0.1c-2.1,0-4.2-1-5.5-2.5c-0.6-0.7-1.1-1.5-1.2-2.4c-2.2,4.3-5,7.7-8.4,10.3
		C80.1,367.7,72.2,371.7,64.5,371.6z M95.8,298.4c-0.4,0-0.7,0-1,0.1l-10.9,2.4c-2.7,0.6-3.4,3.4-3.5,4.6l-3.1,24.9l-0.6,0.1
		c-6,1.5-13,3.6-18.7,8.5c-4.8,4.1-7.9,10.9-7.8,16.9c0.1,3.1,1.1,7.6,5.3,10.8c2.5,1.9,5.6,2.9,9.1,3c7.2,0.1,14.7-3.7,19.3-7.3
		c4.2-3.3,7.6-8.2,9.9-14.4l2.9-7.6L95.2,352c-0.2,1.3,0.4,2.2,0.9,2.8c1.2,1.3,3.4,2.1,5.1,1.7l11-2.4c2.7-0.6,3.4-3.4,3.5-4.6
		l1.7-13.2l1.3,3.7c1,2.8,2.9,5.2,5.4,6.9c2.4,1.6,5.4,2.4,9,2.5c4.1,0,7.9-0.9,10.3-1.7c5.5-1.9,9.4-5.3,11.8-10.2l0.9-2l0.8,2
		c0.6,1.4,1.5,2.6,2.7,3.6c1.2,0.9,2.6,1.3,4.4,1.4l0,0c1.2,0,2.5-0.1,4.1-0.5l12.8-2.8c2.4-0.5,4.2-1.1,6-1.8c3-1.3,5.1-4.1,6-8
		c0.1-0.3,0.1-0.5,0.2-0.8c0.1-0.4,0.1-0.7,0.1-1c0.1-1-0.3-2.1-1.1-3c-0.9-1.1-2.3-1.7-3.6-1.8c-0.4,0-0.9,0-1.3,0.1l-9.7,2.1
		l0.2-1.9l0.6-0.3c4.8-1.8,7.5-4.8,8.3-9.1c0.3-1.7-0.1-3.3-1-4.5c-1.1-1.3-2.8-1.9-4.6-1.5l-1.3,0.2l0.9-7.1
		c0.2-1.3-0.4-2.3-0.9-2.8c-1.2-1.3-3.4-2.1-5.1-1.7l-5.9,1.3c-1.5,0.3-2.9,1.7-3.3,3.3c-1.4,4.9-2.4,8.4-6.9,11.2l-1.4,0.9
		l-19.1,4.2c-0.6,0.1-1.2,0.3-1.9,0.4H136c-0.1,0-0.2,0-0.4,0.1l-16.3,3.6l2.2-17.8c0.2-1.3-0.4-2.3-0.9-2.8
		c-1.2-1.3-3.4-2.1-5.1-1.7l-11,2.4c-0.8,0.2-1.5,0.6-2.1,1.2l-1.3,1.5l-0.3-1.9C100.3,299.8,97.8,298.4,95.8,298.4z"/>
	<path class="st9" d="M402.2,281c-0.1-0.5-0.3-1-0.5-1.5c-0.6-1.4-1.4-2.6-2.3-3.5c0.2-0.3,0.3-0.6,0.4-1c2.9-10.7,5.7-21.3,8.6-32
		c0.1-0.3,0.2-0.6,0.2-0.9c0.6-2.5-0.4-4.4-2-5.6c-1.2-1.1-2.9-1.7-5-1.2c-5,1.1-10,2.2-15.1,3.3c-2.5,0.5-4.2,3-4.2,5.4
		c-0.3,10.3-0.6,20.6-0.9,31c0,0.7,0.1,1.3,0.3,1.9c-0.1,0.1-0.2,0.3-0.4,0.5c-0.8,1-1.3,2-1.6,3.1c-0.4-0.1-0.9-0.2-1.3-0.2
		s-0.8,0-1.2,0.1c-0.1,0-0.2,0-0.3,0c-1.5,0.3-3,0.6-4.5,1c-1-3.5-3.3-7-5.4-10.2c0.7-4.9-1.5-9.9-6.5-11.7c-2.8-1-6.9-1.4-9.2,0.9
		c-0.8,0.7-1.3,1.7-1.8,2.6c-1.4,2.3-2.8,4.6-4.1,6.9c-0.8,1.3-1.5,2.5-1.5,4.1c0,1.3,0.4,2.6,0.9,3.8c-1.5,2.1-3,4.3-4.5,6.4
		c-0.4,0.6-0.7,1.2-0.8,1.8c-1,0.9-1.9,1.9-2.5,3.1c-0.5,0.1-0.9,0.2-1.4,0.3c0.4-3.2,0.8-6.5,1.2-9.7c0.5-3.9-3.9-6.3-7.1-5.6
		c-5.6,1.2-11.3,2.4-16.9,3.7c-11.3,2.5-22.6,5-34,7.4c-4.5,1-9.1,2.3-12.8,4.7c0-1.2-0.2-2.5-0.4-3.7c0-0.3-0.1-0.5-0.1-0.8
		c0-0.2-0.1-0.5-0.2-0.7c-1.4-4.9-4.4-9.1-8.9-11.6c-5.8-3.2-12.5-3.2-18.8-2.1c-4.5,0.8-8.9,1.9-13.3,2.9
		c-5.4,1.2-10.8,2.4-16.1,3.5c-3.1,0.7-4.5,2.9-5.4,5.6c-0.8,2.4-1.6,4.8-2.5,7.2c-1.5,4.3,2.9,8,6.9,7.1c3.1-0.7,6.1-1.3,9.2-2
		c-1.3,10.2-2.5,20.4-3.8,30.5c-0.5,3.9,3.9,6.3,7.1,5.6c9-2,17.9-3.7,26-8.5c5.3-3.1,10.1-7.5,13.8-12.6c1.1,2.5,2.9,4.7,5.4,6.4
		c5.7,3.8,14,2.9,20.1,0.8c5.9-2,10.3-5.8,12.7-11.6c0-0.1,0.1-0.3,0.1-0.4c0.2,0.2,0.3,0.5,0.5,0.7c1,1.2,2.2,2.2,3.5,3
		c-0.4,2.6-0.1,5.5,0.6,8.1c1.7,6.7,8.4,10.2,15,9c5.5-1,10-4.3,12.8-9.1c1.9-3.2,2.8-6.9,3.5-10.6c1.4-0.3,2.7-0.6,4-1
		c2-0.6,3.8-1.5,5.2-2.7c1.9,0.5,4.1,0.6,6.3,0.2c1.5-0.2,3-0.6,4.5-0.9c5.4-1.2,10.7-2.3,16-3.5c1.4-0.3,2.7-0.6,4-0.9
		c3.4-0.8,6.8-3,8.8-6c2.9,2.5,7.3,3.4,11,2.8c2.8-0.5,5.2-2.4,6.9-4.5c1.6-2.1,2.2-4.4,2.1-6.9C402.5,282.5,402.5,281.8,402.2,281z
		 M236.8,308.3c0.7-5.9,1.5-11.7,2.2-17.6c0.5,0,1.1,0,1.6,0c0.1,0,0.5,0.2,0.8,0.3c0.1,0.1,0.1,0.2,0.3,0.3
		c-0.7-0.7,0.4,0.7,0.4,0.8c-0.1-0.4-0.1-0.2,0.2,0.5c0.2,0.6,0.4,1.3,0.5,2c-0.2-0.9-0.1,1.4-0.1,1.7c-0.1,1.1-0.4,2.2-0.6,3.3
		c-0.6,2.2-1.6,4.1-2.9,6C238.4,306.5,237.6,307.5,236.8,308.3z"/>
	<path class="st12" d="M218.4,332.6c-2.1,0-4.2-1-5.5-2.5c-1.1-1.2-1.5-2.7-1.3-4.3l3.6-29.2l-7.9,1.7c-2.7,0.6-5.7-0.6-7.2-2.9
		c-1.1-1.6-1.4-3.6-0.8-5.5l2.5-7.2c0.9-2.5,2.3-5.4,6.1-6.3l16.1-3.5c1.4-0.3,2.9-0.6,4.3-1c3-0.7,6-1.4,9-1.9
		c7.8-1.4,14.2-0.7,19.4,2.2c4.6,2.5,7.9,6.8,9.4,12.2c0.1,0.2,0.2,0.5,0.2,0.8c0.1,0.3,0.1,0.6,0.1,0.9c0.1,0.7,0.2,1.5,0.3,2.2
		c3.8-2.1,8.2-3.2,11.8-4l34-7.4c3.7-0.9,7.6-1.7,11.3-2.5c1.9-0.4,3.8-0.8,5.6-1.2c0.5-0.1,1-0.1,1.5-0.1c2.1,0,4.2,1,5.5,2.5
		c1.1,1.2,1.5,2.7,1.4,4.3l-1,7.8c0.5-0.8,1.1-1.5,1.8-2.1c0.2-0.7,0.5-1.3,0.9-1.9l4.2-6c-0.5-1.3-0.8-2.5-0.8-3.7
		c0-1.8,0.8-3.1,1.6-4.4l4.5-7.5c0.5-0.8,1-1.6,1.7-2.3c1.3-1.3,3.3-2,5.7-2c1.5,0,3.1,0.3,4.5,0.9c4.9,1.9,7.8,6.8,7.1,12.4
		c1.9,2.8,3.9,6,5.1,9.3l3.6-0.8c0.1,0,0.2,0,0.3,0c0.8-0.2,1.5-0.2,2.2-0.1c0.4-0.9,0.9-1.8,1.5-2.6c0,0,0-0.1,0.1-0.1
		c-0.1-0.6-0.2-1.2-0.2-1.8l0.9-31c0.1-3.1,2.2-5.7,5-6.3l15.1-3.3c2.2-0.5,4.3,0.1,5.8,1.5c2,1.5,2.9,3.9,2.3,6.6
		c0,0.3-0.1,0.6-0.3,1l-8.5,31.9c0,0.2-0.1,0.4-0.2,0.5c0.8,1,1.5,2.1,2.1,3.3c0.3,0.5,0.5,1.1,0.6,1.7c0.2,0.8,0.3,1.7,0.2,2.5
		c0,2.9-0.7,5.4-2.3,7.4c-1.2,1.6-3.8,4.3-7.5,4.9c-0.8,0.1-1.7,0.2-2.6,0.2c-3.1,0-6.1-1-8.4-2.6c-2.1,2.7-5.3,4.8-8.8,5.6l-21,4.6
		c-1.2,0.3-2.4,0.5-3.6,0.7c-2.2,0.4-4.4,0.3-6.2-0.1c-1.5,1.1-3.2,2-5.2,2.6c-1.2,0.4-2.4,0.7-3.5,0.9c-0.6,3.1-1.5,7-3.5,10.3
		c-3,5.1-7.8,8.5-13.5,9.5c-1,0.2-1.9,0.3-2.9,0.2c-6.4-0.1-11.6-4.1-13.1-10c-0.7-2.7-0.9-5.4-0.7-7.8c-1-0.7-1.9-1.4-2.7-2.3
		c-2.5,5.3-6.9,9.1-12.8,11.1c-2.6,0.9-6.5,1.9-10.9,1.8c-4,0-7.3-1-10-2.8c-2.1-1.4-3.8-3.2-5-5.4c-3.5,4.6-8.1,8.6-13.1,11.7
		c-7.7,4.6-16.3,6.5-24.6,8.2l-1.7,0.4C219.4,332.6,218.9,332.6,218.4,332.6z M217.4,294.2l-4,31.9c-0.2,1.3,0.4,2.3,0.9,2.8
		c1.2,1.3,3.4,2.1,5.1,1.7l1.7-0.4c8.5-1.9,16.6-3.6,24-8c5.3-3.2,10-7.4,13.5-12.4l1-1.4l0.7,1.5c1.1,2.4,2.8,4.5,5,6
		c2.4,1.6,5.4,2.4,9,2.5c4.1,0,7.9-0.9,10.3-1.7c5.8-2,9.9-5.7,12.1-11c0-0.1,0-0.1,0.1-0.2l0.7-1.9l1,1.5c0.1,0.2,0.3,0.4,0.5,0.6
		c0.9,1.1,2,2,3.2,2.7l0.5,0.3l-0.1,0.6c-0.3,2.3-0.1,5,0.5,7.7c1.3,5,5.8,8.5,11.3,8.5c0.9,0,1.7-0.1,2.5-0.2
		c5.1-0.9,9.5-4,12.2-8.6c2-3.3,2.8-7.2,3.4-10.3l0.1-0.6l0.6-0.1c1.2-0.2,2.6-0.6,3.9-1c1.9-0.6,3.5-1.5,4.9-2.5l0.4-0.3l0.5,0.1
		c1.7,0.5,3.8,0.5,5.9,0.2c1.2-0.2,2.4-0.5,3.5-0.7l21-4.6c3.3-0.7,6.4-2.9,8.2-5.6l0.6-0.9l0.8,0.7c2,1.7,4.9,2.7,8,2.8
		c0.8,0,1.5,0,2.3-0.2c3-0.5,5.2-2.8,6.3-4.2c1.4-1.7,2-3.8,1.9-6.3v-0.1V283c0.1-0.6,0-1.2-0.2-1.9V281c-0.1-0.4-0.2-0.8-0.4-1.1
		v-0.1c-0.5-1.2-1.2-2.3-2.1-3.2l-0.5-0.5l0.3-0.6c0.1-0.3,0.3-0.6,0.3-0.8l8.6-32c0.1-0.3,0.2-0.6,0.2-0.8c0.6-2.6-0.8-4.1-1.6-4.7
		c-1.2-1.1-2.6-1.4-4.2-1.1l-15.1,3.3c-1.9,0.4-3.4,2.4-3.5,4.5l-0.9,31c0,0.5,0.1,1.1,0.2,1.6l0.2,0.5l-0.5,0.6
		c-0.1,0.1-0.1,0.2-0.2,0.3c-0.7,0.9-1.1,1.8-1.5,2.8l-0.3,0.9l-0.9-0.2c-0.7-0.2-1.3-0.2-2.1,0H377h-0.1l-5.3,1.2l-0.2-0.9
		c-1-3.4-3.3-6.9-5.3-9.9l-0.2-0.3v-0.4c0.7-4.9-1.6-9.1-5.9-10.7c-1.2-0.5-2.6-0.7-3.9-0.8c-1.3,0-3.1,0.2-4.3,1.4
		c-0.5,0.5-0.9,1.2-1.4,1.9l-0.3,0.5l-4.2,7c-0.7,1.2-1.3,2.2-1.3,3.5c0,1.1,0.3,2.2,0.8,3.4l0.2,0.5l-4.8,6.9
		c-0.3,0.5-0.5,1-0.7,1.5l-0.1,0.3l-0.2,0.2c-1,0.8-1.7,1.8-2.3,2.8l-0.2,0.4l-3.1,0.7l1.4-11c0.2-1.3-0.4-2.3-0.9-2.8
		c-1.2-1.3-3.4-2.1-5.1-1.7c-1.9,0.4-3.8,0.8-5.7,1.2c-3.7,0.8-7.5,1.6-11.2,2.5l-34,7.4c-3.8,0.8-8.7,2.1-12.5,4.6l-1.4,0.9
		l-0.1-1.7c0-1.2-0.2-2.4-0.4-3.6c0-0.3-0.1-0.5-0.1-0.7s-0.1-0.4-0.2-0.6c-1.4-5-4.3-8.8-8.5-11.1c-4.8-2.6-10.8-3.3-18.1-2
		c-3,0.5-6,1.2-8.9,1.9c-1.4,0.3-2.9,0.7-4.3,1l-16.1,3.5c-2.3,0.5-3.7,2-4.8,5l-2.5,7.2c-0.6,1.7,0,3,0.5,3.8
		c1.1,1.6,3.4,2.5,5.3,2.1L217.4,294.2z M235.5,310.8l2.7-21.1h0.8c0.6,0,1.1,0,1.7,0c0.1,0,0.4,0,1.2,0.4l0.1,0.1l0.1,0.1
		c0,0,0.1,0,0.1,0.1c0.1,0,0.1,0.1,0.2,0.2l-0.1,0.1h0.1c0,0.1,0.1,0.2,0.2,0.3c0.3,0.2,0.4,0.6,0.7,1.2c0.2,0.6,0.3,1.2,0.4,1.8
		l-0.1,2.8c-0.1,0.8-0.3,1.6-0.5,2.4l-0.1,0.4c-0.5,2.1-1.4,4-3,6.3c-0.7,1-1.5,2-2.5,2.9L235.5,310.8z M239.8,291.6l-1.7,13.8
		c0.1-0.1,0.2-0.2,0.3-0.4c1.4-2.1,2.2-3.8,2.7-5.7l0.1-0.4c0.2-0.9,0.5-1.8,0.5-2.7c0-0.1,0-0.2,0-0.5c0-0.7,0-1.1,0-1.4
		c-0.1-0.5-0.2-0.9-0.4-1.4c0-0.1-0.1-0.2-0.1-0.3l-0.1-0.1c-0.2-0.3-0.4-0.5-0.5-0.8c-0.1-0.1-0.2-0.1-0.3-0.1
		S240,291.6,239.8,291.6z"/>
	<g>
		<g>
			<path class="st0" d="M136.7,322.2c0.1,3.4-1.7,5.5-5.7,6.3l-18,3.9l-2.1,17l-11,2.4l2.2-17.1l-10.3,2.2
				c-2.7,15.4-10.2,24.5-22.6,27.2c-3.3,0.7-6.2,0.7-8.7-0.2c-2.9-1-4.8-3.1-5.5-6.3c-0.5-2.5-0.2-5.1,0.9-8
				c2.8-7.3,9.8-12.1,21.1-14.6l4.4-1l3.6-28.8l10.9-2.4l-3.7,28.8l10.5-2.3l2.9-23.8l11-2.4l-3,23.8L136.7,322.2z M80.8,339.5
				l-0.9,0.2c-4,0.9-7.4,2.7-10.1,5.4c-3.2,3.2-4.3,6.6-3.5,10.4c0.6,2.6,2,3.7,4.4,3.2c2.9-0.6,5.4-3.3,7.3-8
				C79.5,347.1,80.4,343.4,80.8,339.5z"/>
			<path class="st0" d="M173.4,314.2c-0.1,3.4-2.2,5.6-6.2,6.5l-19.1,4.2c0.8,0.3,1.5,1,2.2,2.1s1.1,2.1,1.2,3
				c0.5,3.5-0.4,6.4-2.7,9c-2.2,2.4-5.3,4.1-9.4,5c-4.8,1.1-8.7,1-11.7-0.4c-2.7-1.2-4.3-3.2-4.9-6c-0.1-0.5-0.2-1.1-0.2-1.7
				c-0.1-3.2,0.8-5.9,3-8.2c2.3-2.4,5.6-4.1,10.1-5.1L173.4,314.2z M141.2,326.3l-7,1.5l-1,8.4c-0.1,0.4,0,0.8,0,1.2
				c0.4,1.7,2.2,2.3,5.4,1.5c0.4-0.1,0.7-0.2,1-0.2L141.2,326.3z"/>
			<path class="st0" d="M188.3,327.5c-0.2,3.5-2.4,5.6-6.5,6.5l-15.5,3.4c-3,0.6-4.7-0.1-5.2-2.2c-0.1-0.5-0.1-1.1,0-1.8l1.5-11.8
				l-5,1.1l0.9-5.3c3.4-1.7,5.7-3.4,7.1-5.2c1.6-2,3-5.4,4.3-10.1l5.9-1.3l-1.6,13.1l7.9-1.7c-0.6,3.5-2.8,5.7-6.6,6.5l-2,0.4
				l-1.4,11.8L188.3,327.5z"/>
			<path class="st0" d="M260,286.9c0.8,3.7,0.4,7.9-1.3,12.6c-2.2,6.2-6.2,11.5-12.1,15.9c-5.4,4.1-11.5,6.9-18.4,8.4l-10.1,2.2
				l4.2-33.6l11-2.4l-3.6,28.4c4-0.9,7.7-3,11.1-6.3s5.6-7,6.6-11c0.9-3.5,1.2-6.4,0.7-8.5c-0.8-3.5-2.3-5.8-4.6-6.9
				c-2-1-4.9-1-8.5-0.2l-29.4,6.4l3-8.7l29.5-6.4c5.1-1.1,9.6-1,13.4,0.4C256.1,278.9,259,282.1,260,286.9z"/>
			<path class="st0" d="M314.6,283.3c-0.1,3.4-2.2,5.6-6.2,6.5l-19,4.2c0.8,0.3,1.5,1,2.2,2.1s1.1,2.1,1.2,3c0.5,3.5-0.5,6.4-2.7,9
				c-2.2,2.4-5.3,4.1-9.4,5c-4.8,1.1-8.7,1-11.7-0.4c-2.7-1.2-4.3-3.2-4.9-6c-0.1-0.5-0.2-1.1-0.2-1.7c-0.1-3.2,0.9-5.9,3-8.2
				c2.3-2.4,5.6-4.1,10.1-5.1L314.6,283.3z M282.5,295.4l-7,1.5l-1,8.4c0,0.4,0,0.8,0,1.2c0.4,1.7,2.2,2.3,5.4,1.5
				c0.4-0.1,0.7-0.2,1-0.2L282.5,295.4z"/>
			<path class="st0" d="M342,293.9c-0.2,3.5-2.9,5.7-8,6.9l-5.4,1.2c-0.7,5.3-1.8,9.2-3.1,11.8c-1.9,3.8-4.9,6.1-8.9,7
				c-2.3,0.5-4.2,0.3-5.9-0.7s-2.7-2.6-3.2-4.8c-1-4.4-0.3-7.5,2-9.4c-2,0-3.8-0.6-5.3-1.6c-1.8-1.2-2.9-2.8-3.4-5
				c-0.2-0.8-0.2-1.7-0.2-2.7c0.1-3.5,1.5-6.4,4.1-8.8c2.3-2.1,5.2-3.5,8.9-4.3l17.4-3.8l-2.1,17L342,293.9z M317.8,305.1
				c-1.3,0.3-2.4,1.3-3.2,3.1c-0.8,1.8-1.1,3.4-0.7,4.9c0.3,1.3,1.1,2.3,2.4,2.9L317.8,305.1z M319.5,287.3l-6.5,1.4l-0.8,8.3
				c0,0.5,0,0.9,0.1,1.3c0.4,1.7,1.8,2.3,4.3,1.8c0.2,0,0.4-0.1,0.7-0.2s0.5-0.1,0.7-0.2L319.5,287.3z"/>
			<path class="st0" d="M378.4,285.9c0.2,1.4-0.3,2.7-1.6,4c-1.3,1.3-2.8,2.1-4.5,2.5l-23.1,5c-4.4,1-7,0.1-7.6-2.6
				c0-0.2-0.1-0.5-0.1-0.8c-0.1-1.2,0.3-2.3,1.3-3.3c0.8-0.8,1.9-1.3,3.2-1.6c2.2-0.4,5.4,0.1,9.7,1.7c0.8-1.6,1-3,0.7-4.4
				c-0.1-0.7-0.9-2.2-2.3-4.4l-2.8,3.9l-6.1,1.3l6.5-9.3c-0.5-0.5-0.9-1-1.1-1.4c-0.4-0.7-0.8-1.5-1-2.5l5.7-9.6
				c3.5-0.2,5.5,1,6.1,3.5c0.3,1.5,0.2,2.9-0.4,4.3c1.2,1.8,2.4,3.6,3.6,5.5c1.5,2.4,2.4,4.3,2.8,5.9c0.4,1.8,0,3.4-1.1,4.9
				L378.4,285.9z"/>
			<path class="st0" d="M396.8,282.4c0.3,1.5,0,2.9-0.9,4.2c-0.9,1.3-2.2,2.1-3.8,2.5c-1.6,0.4-3.1,0.1-4.5-0.7
				c-1.4-0.8-2.2-2-2.5-3.4c-0.3-1.5,0-2.9,0.9-4.2c0.9-1.3,2.2-2.1,3.9-2.5c1.6-0.4,3.1-0.1,4.5,0.7
				C395.6,279.8,396.4,280.9,396.8,282.4z M403.1,240.8l-8.8,32.7l-7.2,1.6l0.9-31L403.1,240.8z"/>
		</g>
	</g>
</g>
<text transform="matrix(0.9862 -0.1654 0.1654 0.9862 104.4239 396.3284)" class="st6 st13 st14">CALCULATOR</text>
</svg>
