<?xml version="1.0" encoding="utf-8"?>
<!-- Generator: Adobe Illustrator 25.2.3, SVG Export Plug-In . SVG Version: 6.00 Build 0)  -->
<svg version="1.1" id="Layer_1" xmlns="http://www.w3.org/2000/svg" xmlns:xlink="http://www.w3.org/1999/xlink" x="0px" y="0px"
	 viewBox="0 0 500 500" style="enable-background:new 0 0 500 500;" xml:space="preserve">
<style type="text/css">
	.st0{fill:#6DB3BF;}
	.st1{fill:#9D4C14;}
	.st2{opacity:0.26;fill:#3F0000;enable-background:new    ;}
	.st3{fill:#FCBB61;}
	.st4{opacity:0.28;fill:#7A0606;enable-background:new    ;}
	.st5{opacity:0.19;fill:#3F0000;enable-background:new    ;}
	.st6{fill:#FFFFFF;}
	.st7{fill:none;stroke:#000000;stroke-miterlimit:10;}
	.st8{fill:#4E1600;}
	.st9{fill:#601700;}
	.st10{fill:#3D0E00;}
	.st11{fill:#FBC928;}
	.st12{opacity:0.21;fill:#7A0606;enable-background:new    ;}
	.st13{opacity:0.19;fill:#230800;enable-background:new    ;}
	.st14{opacity:0.6;}
	.st15{opacity:0.56;fill:#FFFFFF;enable-background:new    ;}
	.st16{opacity:0.43;fill:#230800;enable-background:new    ;}
</style>
<circle class="st0" cx="230.8" cy="250.8" r="175.1"/>
<g id="BACKGROUND_2">
</g>
<path class="st1" d="M160.4,466.5c0,4.6,19.7,6.2,23-0.2c3.4-6.4,10.7-30.3,9.8-56.4l-21.7-8.3c0,0,1.8,4.7,3.3,11.8
	c2,9.2,3.8,22.3,1,34.2C170.9,468.7,160.4,461.9,160.4,466.5z"/>
<path class="st1" d="M208.4,472.2c0.6,4.6,20.3,3.3,22.7-3.5s6.3-31.6,1.8-57.2l-22.7-5.2c0,0,2.8,5.3,5.6,13.1
	c3.1,8.7,6.1,20.6,5.1,31.9c-1.5,17.4-9.2,17.3-11.8,19C208.6,470.9,208.3,471.4,208.4,472.2z"/>
<path class="st2" d="M208.4,472.2c0.6,4.6,20.3,3.3,22.7-3.5s6.3-31.6,1.8-57.2l-22.7-5.2c0,0,2.8,5.3,5.6,13.1c2.5,0.2,5,0.5,7.4,3
	c4,4,4.5,10.5,4.9,15.9c0.4,5.6,0.8,11.3-0.6,16.8c-1.4,5.5-4.8,10.7-10,12.9c-2.7,1.1-5.7,1.4-8.4,2.4
	C208.6,470.9,208.3,471.4,208.4,472.2z"/>
<path class="st2" d="M160.4,466.5c0,4.6,19.7,6.2,23-0.2c3.4-6.4,10.7-30.3,9.8-56.4l-21.7-8.3c0,0,1.8,4.7,3.3,11.8
	c1.3,0.6,2.7,1.3,4,2c1.3,0.6,2.7,1.4,3.5,2.5c0.8,1,1.1,2.3,1.3,3.5c2.6,12.8,1.1,26.3-4.2,38.2c-0.9,2-1.9,4-3.7,5.2
	c-2.9,2-6.7,1.4-10.2,1.2C163.8,465.9,162,466,160.4,466.5z"/>
<path class="st3" d="M121.7,366.7c18.9,24.1,47.6,10.3,47.6,10.3s-28.7-7.2-2.9-63.5c25.8-56.4,13.2-190.5,13.2-190.5
	s-11.5-7.1-25.4,3c-3.8,2.7-7.7,6.7-11.6,12.5c-18.5,26.9,5.5,77.4-4.8,129c-4.8,24.2-12.8,42.2-18,57
	C113.9,341.3,111.7,354,121.7,366.7z"/>
<path class="st4" d="M120.4,366.7C139.3,390.8,168,377,168,377s-28.7-7.2-2.9-63.5C191,257.2,178.4,123,178.4,123s-11.5-7.1-25.4,3
	c1.1,4.1,1.4,9,4.1,12.6c2,2.6,4.6,4.9,6.1,7.9c1.7,3.1,2.2,6.8,2.6,10.3c6.5,62.5-15.8,123.9-27.1,185.8c-0.5,2.5-1,5.3-2.8,7.1
	c-4.2,4.5-12.3,0.9-14.8-4.7s-1.7-12-2.2-18.2c-0.1-0.8-0.2-1.5-0.4-2.3C112.6,341.3,110.4,354,120.4,366.7z"/>
<path class="st1" d="M180.2,409.8c67.1,21.2,98.6-18.9,118.1-97.5c19.3-77.8,26.4-170.3,5.7-227.1c-20.7-56.8-90.6-52.7-117.6-10.3
	c-7.1,11.2-10.3,21.4-11.3,32.8c-1,11.3,0,23.8,1.3,39.6c1.7,20.8,3.8,47.4,2,84.7c-2.1,43.7-30.4,92.1-33.4,128.4
	c-0.1,1.4-0.2,2.7-0.2,4C144.3,384.9,152.7,401.1,180.2,409.8z"/>
<path class="st2" d="M145.1,360.4c0.2-0.4,0.4-0.9,0.6-1.5c2.3-6.8,4.1-13.7,6.3-20.5c4.3-13.1,8.7-26.5,14.1-39.2
	c3.9-9.8,8.1-19.6,10.6-29.9c1.9-7.9,2.9-16,3.5-24c3.3-37.6,1.7-75.4,0-113.1c-0.4-8.4-1-17.4-5.1-24.5c-1,11.3,0,23.8,1.3,39.6
	c1.7,20.8,3.8,47.4,2,84.7C176.3,275.6,148.1,324.1,145.1,360.4z"/>
<path class="st5" d="M180.2,409.8c67.1,21.2,98.6-18.9,118.1-97.5c19.3-77.8,26.4-170.3,5.7-227.1c-20.7-56.8-90.6-52.7-117.6-10.3
	c-14.2,22.4-12.6,40.8-10,72.5c2.6,1,5.2,1.9,8.2,2.3c12.6,1.4,26.2-3.6,33.9-13.9c1.2-1.6,2.7-3.5,4.7-3.5c3.8,0,4,5.6,6.2,8.7
	c1.5,2.1,4.3,3,6.2,4.8c5.8,5.3,2.1,14.7-0.4,22.1c-7.4,21.6-1.3,45.2,0.1,68c1.6,25.2-2.7,50.8-12.4,74.1
	c-6,14.5-14.3,29-12.8,44.7c0.4,4.4,1.5,9-0.1,13c-2,4.9-7.3,7.4-12.3,9.2c-10.5,3.8-21.8,6.5-32.7,4.1c-8.9-2-17.2-8.3-20.3-16.6
	C144.3,384.9,152.7,401.1,180.2,409.8z"/>
<path class="st6" d="M199.5,156.9c0,0-2.2,6,0,9.1s37.6,2.1,50.3-5.7c0,0,0.9-5.2-0.5-8.4C249.3,152,223,161.8,199.5,156.9z"/>
<path class="st7" d="M202.3,143.4c0,0,0.3,7.7-7.9,11.8c0,0,17.9,9.5,54.9-3.1c0,0,5.2,22.1-15.2,26.9s-41.6,1.1-41.6,1.1
	s2.6,9.2,10.3,10.9"/>
<path class="st3" d="M251,390.8c32.7,6.9,89.5-46.4,104.9-146.2c15.5-99.8-22.4-174-63.6-153.1c-6.7,3.4-11.7,8.9-15.6,16.2
	c-21.5,40.5-4.4,132.7-20,179.9c-0.9,2.9-1.9,5.7-2.8,8.4l0,0c-0.9,2.8-1.9,5.5-2.8,8.2c-7.2,20.8-13.8,38.9-16.3,53.2
	C231.5,375.5,234.6,387.4,251,390.8z"/>
<path class="st4" d="M251,390.8c32.7,6.9,89.5-46.4,104.9-146.2c15.5-99.8-22.4-174-63.6-153.1c-6.7,3.4-11.7,8.9-15.6,16.2
	c21.3-3.3,30.2,13.9,34.4,33.1c5.1,23.1,10.2,46.5,9.6,70.1c-0.1,3.9-0.4,8-2.3,11.4c-1.5,2.6-3.7,4.7-5.6,7
	c-7.5,9.1-8.9,21.8-15.1,31.8c-7.6,12.3-22.7,19.5-37,17.6c-2.5,3.7-1.1,9.5,2.9,11.7c-3.8,0.8-7.2,2.9-9.7,5.7l0,0
	c-1.3,1.5-2.4,3.1-3.2,5c-0.7,1.6,0.5,3.5,2.2,3.5c0,0,0,0,0.1,0c0.7,0.4,1.3,0.8,2.1,1.2c3.1,6.6,10.3,11.2,17.6,11.3
	c7.5,0.1,14.8-4.5,18-11.2c1.3-2.7,2.6-6.3,5.6-6.6c4.9-0.6,5.4,7.1,3.6,11.7c-4.5,11.9-9.8,23.5-15.6,34.9
	c-5.5,10.7-12.5,21.9-23.9,25.9c-10.7,3.8-25.4-3.3-25.6-14.2C231.5,375.5,234.6,387.4,251,390.8z"/>
<path class="st1" d="M257.4,301.7c6.3-1.6,16.4-7.5,16.9-5.4v0.1c0.4,2.1-6,5.6-11.1,8.1c-4.6,2.2-5.2,6.1,0.8,5.2
	s12.9-7.2,14.3-6.8c3.8,1-7.2,5.4-9,8.9c-1.7,3.5,4.9,1.2,4.9,1.2c16.6-8.6,16.6-20.1,19.5-23.5s14.3-11.5,28.7-26.4
	c14.3-14.9,10.9-32.1,10.9-32.1c-14.5-2.6-20.4,4.1-22.1,6.8c-0.4,0.6-0.6,1.1-0.6,1.1c1.7,19.8-28.2,43.4-33.9,45.8
	c-5.7,2.3-15-5.8-14.8,1.5c0,2.3,4.3,3.3,7.7,3.8c1.5,0.2,0.8,2.3-0.6,2.9c-3.9,1.7-8.4,3.1-11.1,4.1
	C254.1,298.1,252.8,302.9,257.4,301.7z"/>
<path class="st8" d="M156.2,114.1c0.1,4.7,1.1,12,5.5,17.8c0.4,0.6,0.9,1.2,1.5,1.8c1.8,1.9,4.1,3.6,6.9,4.9
	c2.4,1.1,5.2,1.9,8.4,2.2l0,0c1.4,0.2,2.8,0.2,4.3,0.3c0.9,0,1.7,0,2.6,0c25.2-1.1,29.1-18.5,29.5-26.9c0.1-2.7-1.8-5-4.4-5.5
	c-0.2,0-0.4-0.1-0.6-0.1c-1.5-0.3-3-0.5-4.5-0.7c-2.9-0.4-5.9-0.8-8.7-0.9c-1.8-0.1-3.5-0.2-5.2-0.3c-1.3,0-2.5-0.1-3.8-0.1
	c-11.9-0.1-21.8,1.3-27.2,2.2C158,109.2,156.1,111.5,156.2,114.1z"/>
<path class="st8" d="M227.5,112.1c0.4,5,2,13,7.7,18.6c0.2,0.2,0.5,0.5,0.8,0.7c1.7,1.6,3.8,3,6.3,4s5.3,1.7,8.7,2
	c1.4,0.1,2.9,0.1,4.4,0.1c0.9,0,1.9-0.1,3-0.2c25-2.5,28-20.1,27.9-28.6c0-2-1.2-3.8-3-4.7c-0.5-0.3-1.1-0.4-1.7-0.5
	c-0.9-0.1-1.8-0.2-2.7-0.3c-3-0.3-6-0.5-9-0.6c-3.2-0.1-6.3-0.1-9.3,0c-3.1,0.1-6.1,0.3-8.9,0.6c-8.7,0.8-15.8,2.2-20,3.2
	C229,107,227.3,109.4,227.5,112.1z"/>
<path class="st9" d="M174.7,100.9c0,0,6.2,0.1,16.1-0.1c11.8-0.3,29-1.2,47.1-3.5c11.7-1.5,23.8-3.6,35.1-6.5
	c10.7-2.8,20.7-6.3,29-10.7c0.4-0.2,0.8-0.4,1.2-0.7c0,0-3.2-9.7-11.3-19.6c-10.1-12.3-27.8-25.1-56.4-20c-2,0.4-4,0.8-5.9,1.2
	C183.6,52.1,176.4,89.9,174.7,100.9z"/>
<path class="st1" d="M191.9,93.8c0,0,21.8,0.6,43.6-4.3c0,0-6.9-15.2-22.9-13.5C196.5,77.7,191.9,93.8,191.9,93.8z"/>
<path class="st9" d="M286.1,60.2L302,80.1c0,0,43.3-5.8,41.6-15c-1.4-7.3-37.4-6-51.7-5.2C288.4,60,286.1,60.2,286.1,60.2z"/>
<path class="st10" d="M237.9,97.3c-18.1,2.3-35.2,3.2-47.1,3.5c-0.7-5,1.2-7,1.2-7c17.5,0,43.6-4.3,43.6-4.3
	C237.5,92.6,237.8,95.9,237.9,97.3z"/>
<g>
	<g>
		<path class="st8" d="M214.9,118.7c-1.4,0-2.8-0.9-3.3-2.3c-0.6-1.8,0.4-3.8,2.1-4.4c0.2-0.1,5.9-2,14.1-1c1.9,0.2,3.2,1.9,3,3.8
			s-1.9,3.2-3.8,3c-6.5-0.8-11,0.7-11,0.7C215.7,118.7,215.3,118.7,214.9,118.7z"/>
	</g>
</g>
<path class="st11" d="M166,350.1c0.8,4.6,2.9,9.5,6.6,13c3.6,3.5,8,5.5,12.2,6.7c2.9,0.8,5.7,1.2,8.5,1.4c1.4,0.1,2.7,0.2,4.1,0.2
	c4.2,0,8.1-0.3,12.3-1.1c2.2-0.4,3.8-2.5,3.6-4.8c-0.3-2.4-2.5-4.1-4.9-3.8h-0.2c-6.8,0.8-14.4,0.6-20.6-1.4c-3.1-1-5.8-2.5-7.6-4.5
	s-2.8-4.5-3.2-7.4c-0.1-1.6-0.2-2.9,0.1-3.8c0.2-1,0.6-1.7,1.3-2.4c1.3-1.5,4.3-2.7,7.5-3.5c6.6-1.7,14.2-2.2,21.9-3.2
	c3.9-0.5,7.9-1.1,12-2.1s8.4-2.3,12.6-5c2.1-1.3,4.1-3.2,5.9-5.3c0.8-1.2,1.6-2.3,2.1-3.6c0.3-0.6,0.6-1.3,0.8-1.9l0.5-2
	c0.4-1.4,0.5-2.6,0.6-3.9c0.1-0.6,0-1.4,0.1-2c0-0.7,0-1.4-0.1-2.1c-0.2-2.9-1.5-6.1-3.5-8.5c-1.9-2.5-4.4-4.2-6.6-5.3
	c-2.2-1.1-4.4-1.9-6.5-2.5c-4.2-1.2-8.1-1.9-11.8-2.7c-3.7-0.8-7.2-1.5-10.2-2.6c-1.5-0.5-2.8-1.1-3.9-1.8c-1.1-0.7-1.9-1.4-2.5-2.1
	c-0.5-0.8-1-1.5-1.2-2.5s-0.4-2.2-0.2-2.9c0.1-0.8,0.2-1,0.6-1.4c0.4-0.4,1.1-1,2.3-1.5c2.3-1,5.7-1.7,9.2-2.1
	c3.5-0.5,7.2-0.7,11.1-1c3.9-0.3,7.8-0.6,12-1.3c4.1-0.7,8.6-1.5,13.6-4.7c2.5-1.6,5-4.5,6.1-7.8c0.6-1.7,0.8-3.3,0.9-4.9
	c0-1.4-0.1-2.9-0.4-4.4c-0.6-3-2.1-5.9-4-8.1c-1.9-2.2-4.1-3.7-6.2-4.9c-4.2-2.4-8.2-3.5-12.1-4.7c-3.9-1.1-7.6-2-11-3
	s-6.6-2.2-8.7-3.7c-2-1.5-2.5-2.6-2.5-4.5c0.1-0.8,0.1-1,0.6-1.5c0.4-0.5,1.4-1.1,2.7-1.5c2.7-0.9,6.1-1.2,9.6-1.2s7.2,0.2,10.8,0.6
	c3.6,0.4,7.4,1,10.9,1.7h0.2c2.2,0.4,4.4-0.9,5-3c0.7-2.3-0.6-4.7-2.9-5.4c-0.6-0.2-1.2-0.4-1.8-0.5c-7.1-2-14.2-3.5-21.9-3.9
	c-4.1-0.2-8.4-0.1-13.1,1.1c-2.4,0.7-4.9,1.8-7.3,3.9c-2.4,2.1-4,5.6-4.3,8.7c-0.3,2.9,0.2,5.9,1.5,8.7s3.4,4.9,5.4,6.5
	c4.2,3.1,8.3,4.5,12.1,5.8c3.9,1.3,7.6,2.3,11.1,3.4c3.5,1.1,6.8,2.3,9.2,3.8c1.2,0.7,2.2,1.5,2.7,2.2c0.6,0.7,0.8,1.3,0.9,2.1
	c0.1,0.4,0.1,0.9,0.1,1.4c-0.1,0.3-0.1,0.7-0.2,0.8c-0.1,0.3-0.2,0.5-0.9,1c-1.5,1-4.7,1.9-8.1,2.3c-3.4,0.5-7.1,0.7-10.9,1
	c-3.8,0.2-7.7,0.5-11.8,1c-4.1,0.6-8.3,1.2-13.1,3.2c-2.3,1-4.9,2.6-7.1,5c-1.1,1.2-2,2.7-2.8,4.2c-0.6,1.6-1.2,3.2-1.3,4.7
	c-0.4,3.1-0.1,5.8,0.6,8.4c0.7,2.7,2.1,5.4,3.9,7.7c1.9,2.2,4.1,3.9,6.3,5.2c2.2,1.2,4.4,2.2,6.5,2.9c4.2,1.4,8.2,2.2,12.1,2.9
	c3.8,0.7,7.5,1.3,10.6,2.2c1.6,0.4,3,1,4.2,1.5c1.2,0.6,1.9,1.2,2.4,1.7c0.4,0.5,0.7,1,0.8,1.9c0.1,0.2,0,0.5,0,0.8s0.1,0.5,0,0.8
	c-0.1,0.6-0.1,1.4-0.3,1.8c-0.5,2.1-1.5,3.7-3.8,5.2c-2.2,1.5-5.3,2.7-8.6,3.6c-3.4,0.9-6.9,1.5-10.6,2.1
	c-7.4,1.2-15.1,1.9-23.3,4.2c-2.1,0.6-4.2,1.3-6.3,2.5c-1.1,0.5-2.2,1.2-3.2,1.9c-1.1,0.9-2.1,1.6-3.1,2.7c-1,1-1.8,2.3-2.5,3.5
	c-0.6,1.3-1.2,2.7-1.4,4.1C165.3,345.3,165.7,347.9,166,350.1z"/>
<path class="st5" d="M264,309.6c6-0.9,12.9-7.2,14.3-6.8c3.8,1-7.2,5.4-9,8.9c-1.7,3.5,4.9,1.2,4.9,1.2
	c16.6-8.6,16.6-20.1,19.5-23.5s14.3-11.5,28.7-26.4c14.3-14.9,10.9-32.1,10.9-32.1c-14.5-2.6-20.4,4.1-22.1,6.8
	c4.2-0.9,8-1.4,9.6,2.8c1.4,3.7-0.4,7.8-2.2,11.3c-10.1,18.7-25.7,34.4-44.3,44.7c0.4,2.1-6,5.6-11.1,8.1
	C258.6,306.7,258,310.5,264,309.6z"/>
<path class="st12" d="M179.6,358.7c3.4,1.6,7.3,2.3,10.3,4.6c2.4,1.8,4.1,5.2,3.4,7.9c1.4,0.1,2.7,0.2,4.1,0.2
	c4.2,0,8.1-0.3,12.3-1.1c2.2-0.4,3.8-2.5,3.6-4.8c-0.3-2.4-2.5-4.1-4.9-3.8h-0.2c-6.8,0.8-14.4,0.6-20.6-1.4c-3.1-1-5.8-2.5-7.6-4.5
	s-2.8-4.5-3.2-7.4c-0.1-1.6-0.2-2.9,0.1-3.8c0.2-1,0.6-1.7,1.3-2.4c1.3-1.5,4.3-2.7,7.5-3.5c6.6-1.7,14.2-2.2,21.9-3.2
	c3.9-0.5,7.9-1.1,12-2.1s8.4-2.3,12.6-5c2.1-1.3,4.1-3.2,5.9-5.3c0.8-1.2,1.6-2.3,2.1-3.6c0.3-0.6,0.6-1.3,0.8-1.9l0.5-2
	c0.4-1.4,0.5-2.6,0.6-3.9c0.1-0.6,0-1.4,0.1-2c0-0.7,0-1.4-0.1-2.1c-0.2-2.9-1.5-6.1-3.5-8.5c-1.9-2.5-4.4-4.2-6.6-5.3
	c-2.2-1.1-4.4-1.9-6.5-2.5c-4.2-1.2-8.1-1.9-11.8-2.7c-3.7-0.8-7.2-1.5-10.2-2.6c-1.5-0.5-2.8-1.1-3.9-1.8c-1.1-0.7-1.9-1.4-2.5-2.1
	c-0.5-0.8-1-1.5-1.2-2.5s-0.4-2.2-0.2-2.9c0.1-0.8,0.2-1,0.6-1.4c0.4-0.4,1.1-1,2.3-1.5c2.3-1,5.7-1.7,9.2-2.1
	c3.5-0.5,7.2-0.7,11.1-1c3.9-0.3,7.8-0.6,12-1.3c4.1-0.7,8.6-1.5,13.6-4.7c2.5-1.6,5-4.5,6.1-7.8c0.6-1.7,0.8-3.3,0.9-4.9
	c0-1.4-0.1-2.9-0.4-4.4c-0.6-3-2.1-5.9-4-8.1c-1.9-2.2-4.1-3.7-6.2-4.9c-4.2-2.4-8.2-3.5-12.1-4.7c-3.9-1.1-7.6-2-11-3
	s-6.6-2.2-8.7-3.7c-2-1.5-2.5-2.6-2.5-4.5c0.1-0.8,0.1-1,0.6-1.5c0.4-0.5,1.4-1.1,2.7-1.5c2.7-0.9,6.1-1.2,9.6-1.2s7.2,0.2,10.8,0.6
	c3.6,0.4,7.4,1,10.9,1.7h0.2c2.2,0.4,4.4-0.9,5-3c0.7-2.3-0.6-4.7-2.9-5.4c-0.6-0.2-1.2-0.4-1.8-0.5c0.1,0.6,0.1,1.1,0,1.8
	c-9.1,0.1-18.2,0.1-27.4,0.2c-3.3,0-6.9,0.2-9.4,2.3c-4.1,3.5-2.8,10.5,1.1,14.2c3.9,3.7,9.3,5.1,14.4,6.6c4.6,1.4,9,3,13.4,4.9
	c3.9,1.7,7.9,3.8,9.6,7.6c2.1,5-0.8,10.9-5.2,14s-10,4-15.3,4.8c-6.6,1-13.1,2-19.6,3c-5.6,0.9-12.2,2.4-14.5,7.6
	c-1.7,3.7-0.4,8.2,2.2,11.2c2.7,3,6.6,4.7,10.5,5.7c7,1.7,14.3,1.2,21.3,3.1c6.9,1.9,13.8,7.2,13.9,14.4c0.1,5.6-4.1,10.4-8.7,13.4
	c-13.3,8.6-30.8,6.7-45.9,11.9c-4.2,1.4-8.6,3.8-10.3,7.9C168.7,348.7,173.5,355.9,179.6,358.7z"/>
<path class="st13" d="M235.9,131.4c1.7,1.6,3.8,3,6.3,4s5.3,1.7,8.7,2c1.4,0.1,2.9,0.1,4.4,0.1c0.9,0,1.9-0.1,2.9-0.2
	c25-2.5,28-20.1,27.9-28.6c0-2-1.2-3.8-3-4.7c-0.5-0.3-1.1-0.4-1.7-0.5c-0.9-0.1-1.8-0.2-2.7-0.3c-3-0.3-6-0.5-9-0.6
	c-3.2-0.1-6.3-0.1-9.3,0c-3.1,0.1-6.1,0.3-8.9,0.6c2.2,0.1,3.8,0.1,4.3,0.1c4.7,0.6,9.9,1.9,12.6,5.8c3,4.4,1.8,10.7-1.9,14.6
	c-3.6,3.9-9,5.6-14.3,6.2c-5.3,0.5-10.6,0-15.9,0.1C236.2,130.4,236.1,130.9,235.9,131.4z"/>
<path class="st13" d="M161.8,131.9c0.4,0.6,0.9,1.2,1.5,1.8c1.8,1.9,4.1,3.6,6.9,4.9c2.4,1.1,5.2,1.9,8.4,2.2l0,0
	c1.4,0.2,2.8,0.2,4.3,0.3c0.9,0,1.7,0,2.6,0c25.2-1.1,29.1-18.5,29.5-26.9c0.1-2.7-1.8-5-4.4-5.5c-0.2,0-0.4-0.1-0.6-0.1
	c-1.5-0.3-3-0.5-4.5-0.7c-2.9-0.4-5.9-0.8-8.7-0.9c-1.8-0.1-3.5-0.2-5.2-0.3c4.5,4.5,9.1,8.6,5.5,16.2c-3.7,8.1-14.2,8.2-21.7,7.4
	c-4-0.4-8.1-0.9-11.8,0.7C162.9,131.2,162.3,131.5,161.8,131.9z"/>
<g class="st14">
	<path class="st15" d="M155.5,181.8c-0.3,2.8-1.8,6.5-4.6,6c-1.3-0.2-2.2-1.2-3-2.3c-3.9-5.2-11-30.7-3.4-35.1
		C154.8,144.5,156,177.3,155.5,181.8z"/>
	<path class="st15" d="M150.8,194.1c-2.9-0.3-10.9,13.5,0,13.8S157.9,194.7,150.8,194.1z"/>
	<path class="st15" d="M275.6,185.7c1.2,0.7,2.8,0.1,3.7-0.9s1.4-2.3,1.7-3.6c1.9-6.6,2.9-13.5,2.9-20.4c0-5.4-5.8-20.1-11.4-10.8
		C267.7,157.9,273,177.6,275.6,185.7z"/>
	<path class="st15" d="M277.2,194.1c-3.1-0.8-5.1,12.9-1.3,13.8C279.8,208.9,282.4,195.4,277.2,194.1z"/>
</g>
<path class="st16" d="M229.6,41.1c4.1,0.2,8.2,1.1,12.3,2.7c12.1,4.8,21.6,15.5,25,28c1.7,6.3,2.5,13.8,6,19
	c10.7-2.8,20.7-6.3,29-10.7c0,0,43.3-5.8,41.6-15c-1.4-7.3-37.4-6-51.7-5.2c-10.1-12.3-27.8-25.1-56.4-20
	C233.5,40.2,231.5,40.7,229.6,41.1z"/>
</svg>
